; NON-PLATED HOLES START AT T1
; THROUGH (PLATED) HOLES START AT T100
M48
INCH
T1C0.125984
T100C0.040000
T101C0.035000
T102C0.031496
T103C0.038000
T104C0.031555
T105C0.051181
T106C0.031497
T107C0.039370
T108C0.030000
%
T1
X000922Y028028
X000922Y023528
T100
X021422Y011828
X021422Y013828
X017822Y030228
X015822Y030228
X021422Y015828
T101
X007422Y010828
X017222Y006228
X005422Y023828
X010222Y029228
X007422Y012828
X012422Y028228
X010422Y006828
X007422Y009828
X010422Y011828
X006022Y016828
X010422Y009828
X010422Y005828
X011422Y020828
X006422Y027428
X007422Y026228
X020222Y029428
X007422Y015828
X007422Y025228
X017822Y009228
X017222Y004028
X017422Y023428
X017422Y020628
X014822Y004028
X016022Y011028
X002822Y015628
X010222Y030828
X003822Y021028
X006422Y019028
X013622Y027828
X007422Y004828
X010422Y014828
X007422Y014828
X006022Y010828
X012422Y023228
X012772Y003628
X007222Y029228
X006422Y023828
X008822Y009828
X012422Y027228
X012422Y025228
X010422Y004828
X017822Y008028
X007422Y006828
X010422Y013828
X010422Y012828
X020822Y009228
X008822Y007628
X021222Y029428
X007422Y008828
X011772Y003628
X007422Y024228
X005422Y019028
X016022Y014028
X020822Y008028
X015822Y004028
X010422Y003828
X000822Y021028
X007422Y003828
X012222Y030828
X004822Y016628
X007422Y023228
X007422Y007828
X017022Y014028
X007422Y005828
X013622Y029828
X002822Y012828
X007422Y002828
X006422Y031028
X010422Y007828
X017022Y011028
X011422Y016828
X012422Y026228
X007422Y027228
X004822Y011828
X012422Y024228
X007422Y011828
X007422Y028228
X010422Y015828
X010422Y010828
X010422Y002828
X007422Y013828
X011222Y030828
X010422Y008828
T102
X015221Y008159
T103
X014822Y011628
X014822Y014228
X014822Y015228
X004422Y027028
X002022Y003828
X012622Y014628
X020622Y005428
X002022Y006828
X021622Y005428
X002022Y001828
X002022Y005828
X002022Y002828
X014822Y012628
X002022Y004828
X012622Y015628
X004422Y028028
T104
X015222Y006228
T105
X015060Y019435
X015060Y024218
X017422Y018628
X019784Y024218
X019784Y019435
T106
X012422Y001827
X013406Y001827
X015822Y001827
X014837Y001827
T107
X003422Y026528
X004422Y026028
X004422Y024028
X003422Y027528
X004422Y025028
X003422Y024528
X003422Y025528
X004422Y027028
T108
X012622Y007230
X012622Y006228
X012622Y008228
X012622Y009230
T00
M30
