G04 MADE WITH FRITZING*
G04 WWW.FRITZING.ORG*
G04 DOUBLE SIDED*
G04 HOLES PLATED*
G04 CONTOUR ON CENTER OF CONTOUR VECTOR*
%ASAXBY*%
%FSLAX23Y23*%
%MOIN*%
%OFA0B0*%
%SFA1.0B1.0*%
%ADD10C,0.085000*%
%ADD11C,0.084000*%
%ADD12C,0.135984*%
%ADD13C,0.088000*%
%ADD14C,0.090000*%
%ADD15C,0.080925*%
%ADD16C,0.080866*%
%ADD17C,0.080000*%
%ADD18C,0.072992*%
%ADD19R,0.090000X0.090000*%
%ADD20R,0.085000X0.085000*%
%ADD21R,0.072992X0.072992*%
%ADD22R,0.001000X0.001000*%
%LNMASK0*%
G90*
G70*
G54D10*
X742Y2823D03*
X1242Y2823D03*
X742Y2323D03*
X1242Y2323D03*
X742Y2423D03*
X1242Y2423D03*
X742Y2523D03*
X1242Y2523D03*
X742Y2623D03*
X1242Y2623D03*
X742Y2723D03*
X1242Y2723D03*
G54D11*
X442Y2403D03*
X342Y2453D03*
X442Y2503D03*
X442Y2603D03*
X442Y2703D03*
X342Y2553D03*
X342Y2653D03*
X342Y2753D03*
G54D12*
X92Y2803D03*
X92Y2353D03*
G54D13*
X442Y2803D03*
X442Y2703D03*
G54D10*
X602Y1683D03*
X602Y1083D03*
X482Y1663D03*
X482Y1183D03*
X282Y1563D03*
X282Y1283D03*
X642Y3103D03*
X642Y2743D03*
X542Y2383D03*
X542Y1903D03*
X642Y2383D03*
X642Y1903D03*
X82Y2103D03*
X382Y2103D03*
X1022Y3083D03*
X1122Y3083D03*
X1222Y3083D03*
G54D14*
X1782Y3023D03*
X1582Y3023D03*
G54D10*
X1722Y623D03*
X1722Y403D03*
X1742Y2343D03*
X1742Y2063D03*
X882Y983D03*
X882Y763D03*
X1362Y2983D03*
X1362Y2783D03*
G54D13*
X202Y183D03*
X202Y283D03*
X202Y383D03*
X202Y483D03*
X202Y583D03*
X202Y683D03*
G54D15*
X1522Y623D03*
G54D16*
X1522Y816D03*
G54D17*
X1262Y723D03*
X1262Y623D03*
X1262Y923D03*
X1262Y823D03*
G54D10*
X2022Y2943D03*
X2122Y2943D03*
G54D18*
X1242Y183D03*
X1341Y183D03*
G54D10*
X1277Y363D03*
X1177Y363D03*
X1582Y403D03*
X1482Y403D03*
X1602Y1403D03*
X1602Y1103D03*
X1702Y1403D03*
X1702Y1103D03*
X1142Y2083D03*
X1142Y1683D03*
X722Y2923D03*
X1022Y2923D03*
X1782Y803D03*
X2082Y803D03*
X1782Y923D03*
X2082Y923D03*
G54D14*
X2142Y1583D03*
X2142Y1383D03*
X2142Y1183D03*
G54D18*
X1582Y183D03*
X1484Y183D03*
G54D10*
X742Y1583D03*
X1042Y1583D03*
X742Y1483D03*
X1042Y1483D03*
X742Y1383D03*
X1042Y1383D03*
X742Y1283D03*
X1042Y1283D03*
X742Y1183D03*
X1042Y1183D03*
X742Y1083D03*
X1042Y1083D03*
X742Y983D03*
X1042Y983D03*
X742Y883D03*
X1042Y883D03*
X742Y783D03*
X1042Y783D03*
X742Y683D03*
X1042Y683D03*
X742Y583D03*
X1042Y583D03*
X742Y483D03*
X1042Y483D03*
X742Y383D03*
X1042Y383D03*
X742Y283D03*
X1042Y283D03*
G54D13*
X1482Y1263D03*
X1482Y1163D03*
X1482Y1523D03*
X1482Y1423D03*
X1262Y1563D03*
X1262Y1463D03*
X2162Y543D03*
X2062Y543D03*
G54D19*
X1782Y3023D03*
G54D20*
X2022Y2943D03*
G54D21*
X1242Y183D03*
G54D19*
X2142Y1583D03*
G54D21*
X1582Y183D03*
G54D20*
X742Y1583D03*
G54D22*
X300Y2795D02*
X383Y2795D01*
X300Y2794D02*
X383Y2794D01*
X300Y2793D02*
X383Y2793D01*
X300Y2792D02*
X383Y2792D01*
X300Y2791D02*
X383Y2791D01*
X300Y2790D02*
X383Y2790D01*
X300Y2789D02*
X383Y2789D01*
X300Y2788D02*
X383Y2788D01*
X300Y2787D02*
X383Y2787D01*
X300Y2786D02*
X383Y2786D01*
X300Y2785D02*
X383Y2785D01*
X300Y2784D02*
X383Y2784D01*
X300Y2783D02*
X383Y2783D01*
X300Y2782D02*
X383Y2782D01*
X300Y2781D02*
X383Y2781D01*
X300Y2780D02*
X383Y2780D01*
X300Y2779D02*
X383Y2779D01*
X300Y2778D02*
X383Y2778D01*
X300Y2777D02*
X383Y2777D01*
X300Y2776D02*
X383Y2776D01*
X300Y2775D02*
X383Y2775D01*
X300Y2774D02*
X383Y2774D01*
X300Y2773D02*
X383Y2773D01*
X300Y2772D02*
X383Y2772D01*
X300Y2771D02*
X383Y2771D01*
X300Y2770D02*
X383Y2770D01*
X300Y2769D02*
X383Y2769D01*
X300Y2768D02*
X338Y2768D01*
X345Y2768D02*
X383Y2768D01*
X300Y2767D02*
X335Y2767D01*
X348Y2767D02*
X383Y2767D01*
X300Y2766D02*
X333Y2766D01*
X350Y2766D02*
X383Y2766D01*
X300Y2765D02*
X332Y2765D01*
X351Y2765D02*
X383Y2765D01*
X300Y2764D02*
X331Y2764D01*
X353Y2764D02*
X383Y2764D01*
X300Y2763D02*
X330Y2763D01*
X353Y2763D02*
X383Y2763D01*
X300Y2762D02*
X329Y2762D01*
X354Y2762D02*
X383Y2762D01*
X300Y2761D02*
X328Y2761D01*
X355Y2761D02*
X383Y2761D01*
X300Y2760D02*
X328Y2760D01*
X355Y2760D02*
X383Y2760D01*
X300Y2759D02*
X327Y2759D01*
X356Y2759D02*
X383Y2759D01*
X300Y2758D02*
X327Y2758D01*
X356Y2758D02*
X383Y2758D01*
X300Y2757D02*
X327Y2757D01*
X357Y2757D02*
X383Y2757D01*
X300Y2756D02*
X327Y2756D01*
X357Y2756D02*
X383Y2756D01*
X300Y2755D02*
X327Y2755D01*
X357Y2755D02*
X383Y2755D01*
X300Y2754D02*
X327Y2754D01*
X357Y2754D02*
X383Y2754D01*
X300Y2753D02*
X327Y2753D01*
X357Y2753D02*
X383Y2753D01*
X300Y2752D02*
X327Y2752D01*
X357Y2752D02*
X383Y2752D01*
X300Y2751D02*
X327Y2751D01*
X357Y2751D02*
X383Y2751D01*
X300Y2750D02*
X327Y2750D01*
X356Y2750D02*
X383Y2750D01*
X300Y2749D02*
X327Y2749D01*
X356Y2749D02*
X383Y2749D01*
X300Y2748D02*
X328Y2748D01*
X356Y2748D02*
X383Y2748D01*
X300Y2747D02*
X328Y2747D01*
X355Y2747D02*
X383Y2747D01*
X300Y2746D02*
X329Y2746D01*
X355Y2746D02*
X383Y2746D01*
X300Y2745D02*
X329Y2745D01*
X354Y2745D02*
X383Y2745D01*
X300Y2744D02*
X330Y2744D01*
X353Y2744D02*
X383Y2744D01*
X300Y2743D02*
X331Y2743D01*
X352Y2743D02*
X383Y2743D01*
X300Y2742D02*
X332Y2742D01*
X351Y2742D02*
X383Y2742D01*
X300Y2741D02*
X334Y2741D01*
X350Y2741D02*
X383Y2741D01*
X300Y2740D02*
X336Y2740D01*
X348Y2740D02*
X383Y2740D01*
X300Y2739D02*
X340Y2739D01*
X343Y2739D02*
X383Y2739D01*
X300Y2738D02*
X383Y2738D01*
X300Y2737D02*
X383Y2737D01*
X300Y2736D02*
X383Y2736D01*
X300Y2735D02*
X383Y2735D01*
X300Y2734D02*
X383Y2734D01*
X300Y2733D02*
X383Y2733D01*
X300Y2732D02*
X383Y2732D01*
X300Y2731D02*
X383Y2731D01*
X300Y2730D02*
X383Y2730D01*
X300Y2729D02*
X383Y2729D01*
X300Y2728D02*
X383Y2728D01*
X300Y2727D02*
X383Y2727D01*
X300Y2726D02*
X383Y2726D01*
X300Y2725D02*
X383Y2725D01*
X300Y2724D02*
X383Y2724D01*
X300Y2723D02*
X383Y2723D01*
X300Y2722D02*
X383Y2722D01*
X300Y2721D02*
X383Y2721D01*
X300Y2720D02*
X383Y2720D01*
X300Y2719D02*
X383Y2719D01*
X300Y2718D02*
X383Y2718D01*
X300Y2717D02*
X383Y2717D01*
X300Y2716D02*
X383Y2716D01*
X300Y2715D02*
X383Y2715D01*
X300Y2714D02*
X383Y2714D01*
X300Y2713D02*
X383Y2713D01*
X300Y2712D02*
X383Y2712D01*
X1497Y2492D02*
X1514Y2492D01*
X1969Y2492D02*
X1986Y2492D01*
X1491Y2491D02*
X1520Y2491D01*
X1964Y2491D02*
X1992Y2491D01*
X1487Y2490D02*
X1523Y2490D01*
X1960Y2490D02*
X1996Y2490D01*
X1484Y2489D02*
X1527Y2489D01*
X1956Y2489D02*
X1999Y2489D01*
X1481Y2488D02*
X1530Y2488D01*
X1953Y2488D02*
X2002Y2488D01*
X1478Y2487D02*
X1532Y2487D01*
X1951Y2487D02*
X2005Y2487D01*
X1476Y2486D02*
X1535Y2486D01*
X1949Y2486D02*
X2007Y2486D01*
X1474Y2485D02*
X1537Y2485D01*
X1947Y2485D02*
X2009Y2485D01*
X1472Y2484D02*
X1538Y2484D01*
X1945Y2484D02*
X2011Y2484D01*
X1471Y2483D02*
X1540Y2483D01*
X1943Y2483D02*
X2012Y2483D01*
X1469Y2482D02*
X1542Y2482D01*
X1941Y2482D02*
X2014Y2482D01*
X1467Y2481D02*
X1543Y2481D01*
X1940Y2481D02*
X2016Y2481D01*
X1466Y2480D02*
X1545Y2480D01*
X1938Y2480D02*
X2017Y2480D01*
X1465Y2479D02*
X1546Y2479D01*
X1937Y2479D02*
X2019Y2479D01*
X1463Y2478D02*
X1547Y2478D01*
X1936Y2478D02*
X2020Y2478D01*
X1462Y2477D02*
X1549Y2477D01*
X1934Y2477D02*
X2021Y2477D01*
X1461Y2476D02*
X1550Y2476D01*
X1933Y2476D02*
X2022Y2476D01*
X1460Y2475D02*
X1551Y2475D01*
X1932Y2475D02*
X2024Y2475D01*
X1458Y2474D02*
X1552Y2474D01*
X1931Y2474D02*
X2025Y2474D01*
X1457Y2473D02*
X1553Y2473D01*
X1930Y2473D02*
X2026Y2473D01*
X1456Y2472D02*
X1555Y2472D01*
X1929Y2472D02*
X2027Y2472D01*
X1455Y2471D02*
X1555Y2471D01*
X1928Y2471D02*
X2028Y2471D01*
X1454Y2470D02*
X1556Y2470D01*
X1927Y2470D02*
X2029Y2470D01*
X1454Y2469D02*
X1557Y2469D01*
X1926Y2469D02*
X2030Y2469D01*
X1453Y2468D02*
X1558Y2468D01*
X1925Y2468D02*
X2030Y2468D01*
X1452Y2467D02*
X1559Y2467D01*
X1924Y2467D02*
X2031Y2467D01*
X1451Y2466D02*
X1560Y2466D01*
X1923Y2466D02*
X2032Y2466D01*
X1450Y2465D02*
X1560Y2465D01*
X1923Y2465D02*
X2033Y2465D01*
X1450Y2464D02*
X1561Y2464D01*
X1922Y2464D02*
X2033Y2464D01*
X1449Y2463D02*
X1562Y2463D01*
X1921Y2463D02*
X2034Y2463D01*
X1448Y2462D02*
X1563Y2462D01*
X1920Y2462D02*
X2035Y2462D01*
X1447Y2461D02*
X1563Y2461D01*
X1920Y2461D02*
X2036Y2461D01*
X1447Y2460D02*
X1564Y2460D01*
X1919Y2460D02*
X2036Y2460D01*
X1446Y2459D02*
X1564Y2459D01*
X1919Y2459D02*
X2037Y2459D01*
X1446Y2458D02*
X1565Y2458D01*
X1918Y2458D02*
X2037Y2458D01*
X1445Y2457D02*
X1566Y2457D01*
X1917Y2457D02*
X2038Y2457D01*
X1444Y2456D02*
X1566Y2456D01*
X1917Y2456D02*
X2039Y2456D01*
X1444Y2455D02*
X1567Y2455D01*
X1916Y2455D02*
X2039Y2455D01*
X1443Y2454D02*
X1567Y2454D01*
X1916Y2454D02*
X2040Y2454D01*
X1443Y2453D02*
X1568Y2453D01*
X1915Y2453D02*
X2040Y2453D01*
X1442Y2452D02*
X1568Y2452D01*
X1915Y2452D02*
X2041Y2452D01*
X1442Y2451D02*
X1569Y2451D01*
X1914Y2451D02*
X2041Y2451D01*
X1441Y2450D02*
X1569Y2450D01*
X1914Y2450D02*
X2042Y2450D01*
X1441Y2449D02*
X1570Y2449D01*
X1913Y2449D02*
X2042Y2449D01*
X1441Y2448D02*
X1570Y2448D01*
X1913Y2448D02*
X2042Y2448D01*
X1440Y2447D02*
X1570Y2447D01*
X1913Y2447D02*
X2043Y2447D01*
X1440Y2446D02*
X1571Y2446D01*
X1912Y2446D02*
X2043Y2446D01*
X1440Y2445D02*
X1571Y2445D01*
X1912Y2445D02*
X2043Y2445D01*
X1439Y2444D02*
X1571Y2444D01*
X1912Y2444D02*
X2044Y2444D01*
X1439Y2443D02*
X1572Y2443D01*
X1911Y2443D02*
X2044Y2443D01*
X1439Y2442D02*
X1572Y2442D01*
X1911Y2442D02*
X2044Y2442D01*
X1439Y2441D02*
X1572Y2441D01*
X1911Y2441D02*
X2045Y2441D01*
X1438Y2440D02*
X1572Y2440D01*
X1911Y2440D02*
X2045Y2440D01*
X1438Y2439D02*
X1573Y2439D01*
X1910Y2439D02*
X2045Y2439D01*
X1438Y2438D02*
X1573Y2438D01*
X1910Y2438D02*
X2045Y2438D01*
X1438Y2437D02*
X1573Y2437D01*
X1910Y2437D02*
X2046Y2437D01*
X1437Y2436D02*
X1573Y2436D01*
X1910Y2436D02*
X2046Y2436D01*
X1437Y2435D02*
X1574Y2435D01*
X1910Y2435D02*
X2046Y2435D01*
X1437Y2434D02*
X1574Y2434D01*
X1909Y2434D02*
X2046Y2434D01*
X1437Y2433D02*
X1574Y2433D01*
X1909Y2433D02*
X2046Y2433D01*
X1437Y2432D02*
X1574Y2432D01*
X1909Y2432D02*
X2046Y2432D01*
X1437Y2431D02*
X1574Y2431D01*
X1909Y2431D02*
X2047Y2431D01*
X1436Y2430D02*
X1574Y2430D01*
X1909Y2430D02*
X2047Y2430D01*
X1436Y2429D02*
X1574Y2429D01*
X1909Y2429D02*
X2047Y2429D01*
X1436Y2428D02*
X1574Y2428D01*
X1909Y2428D02*
X2047Y2428D01*
X1436Y2427D02*
X1575Y2427D01*
X1909Y2427D02*
X2047Y2427D01*
X1436Y2426D02*
X1575Y2426D01*
X1908Y2426D02*
X2047Y2426D01*
X1436Y2425D02*
X1575Y2425D01*
X1908Y2425D02*
X2047Y2425D01*
X1436Y2424D02*
X1575Y2424D01*
X1908Y2424D02*
X2047Y2424D01*
X1436Y2423D02*
X1575Y2423D01*
X1908Y2423D02*
X2047Y2423D01*
X1436Y2422D02*
X1575Y2422D01*
X1908Y2422D02*
X2047Y2422D01*
X1436Y2421D02*
X1575Y2421D01*
X1908Y2421D02*
X2047Y2421D01*
X1436Y2420D02*
X1575Y2420D01*
X1908Y2420D02*
X2047Y2420D01*
X1436Y2419D02*
X1575Y2419D01*
X1908Y2419D02*
X2047Y2419D01*
X1436Y2418D02*
X1575Y2418D01*
X1909Y2418D02*
X2047Y2418D01*
X1436Y2417D02*
X1574Y2417D01*
X1909Y2417D02*
X2047Y2417D01*
X1436Y2416D02*
X1574Y2416D01*
X1909Y2416D02*
X2047Y2416D01*
X1436Y2415D02*
X1574Y2415D01*
X1909Y2415D02*
X2047Y2415D01*
X1437Y2414D02*
X1574Y2414D01*
X1909Y2414D02*
X2046Y2414D01*
X1437Y2413D02*
X1574Y2413D01*
X1909Y2413D02*
X2046Y2413D01*
X1437Y2412D02*
X1574Y2412D01*
X1909Y2412D02*
X2046Y2412D01*
X1437Y2411D02*
X1574Y2411D01*
X1909Y2411D02*
X2046Y2411D01*
X1437Y2410D02*
X1573Y2410D01*
X1910Y2410D02*
X2046Y2410D01*
X1437Y2409D02*
X1573Y2409D01*
X1910Y2409D02*
X2046Y2409D01*
X1438Y2408D02*
X1573Y2408D01*
X1910Y2408D02*
X2045Y2408D01*
X1438Y2407D02*
X1573Y2407D01*
X1910Y2407D02*
X2045Y2407D01*
X1438Y2406D02*
X1573Y2406D01*
X1910Y2406D02*
X2045Y2406D01*
X1438Y2405D02*
X1572Y2405D01*
X1911Y2405D02*
X2045Y2405D01*
X1439Y2404D02*
X1572Y2404D01*
X1911Y2404D02*
X2044Y2404D01*
X1439Y2403D02*
X1572Y2403D01*
X1911Y2403D02*
X2044Y2403D01*
X1439Y2402D02*
X1572Y2402D01*
X1912Y2402D02*
X2044Y2402D01*
X1439Y2401D02*
X1571Y2401D01*
X1912Y2401D02*
X2044Y2401D01*
X1440Y2400D02*
X1571Y2400D01*
X1912Y2400D02*
X2043Y2400D01*
X1440Y2399D02*
X1571Y2399D01*
X1913Y2399D02*
X2043Y2399D01*
X1441Y2398D02*
X1570Y2398D01*
X1913Y2398D02*
X2043Y2398D01*
X1441Y2397D02*
X1570Y2397D01*
X1913Y2397D02*
X2042Y2397D01*
X1441Y2396D02*
X1569Y2396D01*
X1914Y2396D02*
X2042Y2396D01*
X1442Y2395D02*
X1569Y2395D01*
X1914Y2395D02*
X2041Y2395D01*
X1442Y2394D02*
X1569Y2394D01*
X1915Y2394D02*
X2041Y2394D01*
X1443Y2393D02*
X1568Y2393D01*
X1915Y2393D02*
X2040Y2393D01*
X1443Y2392D02*
X1568Y2392D01*
X1916Y2392D02*
X2040Y2392D01*
X1444Y2391D02*
X1567Y2391D01*
X1916Y2391D02*
X2039Y2391D01*
X1444Y2390D02*
X1567Y2390D01*
X1916Y2390D02*
X2039Y2390D01*
X1445Y2389D02*
X1566Y2389D01*
X1917Y2389D02*
X2038Y2389D01*
X1445Y2388D02*
X1565Y2388D01*
X1918Y2388D02*
X2038Y2388D01*
X1446Y2387D02*
X1565Y2387D01*
X1918Y2387D02*
X2037Y2387D01*
X1447Y2386D02*
X1564Y2386D01*
X1919Y2386D02*
X2037Y2386D01*
X1447Y2385D02*
X1564Y2385D01*
X1920Y2385D02*
X2036Y2385D01*
X1448Y2384D02*
X1563Y2384D01*
X1920Y2384D02*
X2035Y2384D01*
X1448Y2383D02*
X1562Y2383D01*
X1921Y2383D02*
X2035Y2383D01*
X1449Y2382D02*
X1562Y2382D01*
X1922Y2382D02*
X2034Y2382D01*
X1450Y2381D02*
X1561Y2381D01*
X1922Y2381D02*
X2033Y2381D01*
X1451Y2380D02*
X1560Y2380D01*
X1923Y2380D02*
X2032Y2380D01*
X1451Y2379D02*
X1559Y2379D01*
X1924Y2379D02*
X2032Y2379D01*
X1452Y2378D02*
X1559Y2378D01*
X1925Y2378D02*
X2031Y2378D01*
X1453Y2377D02*
X1558Y2377D01*
X1925Y2377D02*
X2030Y2377D01*
X1454Y2376D02*
X1557Y2376D01*
X1926Y2376D02*
X2029Y2376D01*
X1455Y2375D02*
X1556Y2375D01*
X1927Y2375D02*
X2028Y2375D01*
X1456Y2374D02*
X1555Y2374D01*
X1928Y2374D02*
X2027Y2374D01*
X1457Y2373D02*
X1554Y2373D01*
X1929Y2373D02*
X2026Y2373D01*
X1458Y2372D02*
X1553Y2372D01*
X1930Y2372D02*
X2025Y2372D01*
X1459Y2371D02*
X1552Y2371D01*
X1931Y2371D02*
X2024Y2371D01*
X1460Y2370D02*
X1551Y2370D01*
X1932Y2370D02*
X2023Y2370D01*
X1461Y2369D02*
X1549Y2369D01*
X1934Y2369D02*
X2022Y2369D01*
X1463Y2368D02*
X1548Y2368D01*
X1935Y2368D02*
X2021Y2368D01*
X1464Y2367D02*
X1547Y2367D01*
X1936Y2367D02*
X2019Y2367D01*
X1465Y2366D02*
X1545Y2366D01*
X1938Y2366D02*
X2018Y2366D01*
X1467Y2365D02*
X1544Y2365D01*
X1939Y2365D02*
X2016Y2365D01*
X1468Y2364D02*
X1542Y2364D01*
X1941Y2364D02*
X2015Y2364D01*
X1470Y2363D02*
X1541Y2363D01*
X1942Y2363D02*
X2013Y2363D01*
X1471Y2362D02*
X1539Y2362D01*
X1944Y2362D02*
X2012Y2362D01*
X1473Y2361D02*
X1538Y2361D01*
X1946Y2361D02*
X2010Y2361D01*
X1475Y2360D02*
X1536Y2360D01*
X1948Y2360D02*
X2008Y2360D01*
X1477Y2359D02*
X1533Y2359D01*
X1950Y2359D02*
X2006Y2359D01*
X1480Y2358D02*
X1531Y2358D01*
X1952Y2358D02*
X2004Y2358D01*
X1482Y2357D02*
X1528Y2357D01*
X1955Y2357D02*
X2001Y2357D01*
X1485Y2356D02*
X1525Y2356D01*
X1958Y2356D02*
X1998Y2356D01*
X1489Y2355D02*
X1521Y2355D01*
X1962Y2355D02*
X1994Y2355D01*
X1494Y2354D02*
X1517Y2354D01*
X1966Y2354D02*
X1989Y2354D01*
X1503Y2353D02*
X1508Y2353D01*
X1975Y2353D02*
X1980Y2353D01*
X1499Y2014D02*
X1512Y2014D01*
X1971Y2014D02*
X1984Y2014D01*
X1492Y2013D02*
X1518Y2013D01*
X1965Y2013D02*
X1991Y2013D01*
X1488Y2012D02*
X1523Y2012D01*
X1960Y2012D02*
X1995Y2012D01*
X1484Y2011D02*
X1526Y2011D01*
X1957Y2011D02*
X1999Y2011D01*
X1482Y2010D02*
X1529Y2010D01*
X1954Y2010D02*
X2002Y2010D01*
X1479Y2009D02*
X1532Y2009D01*
X1951Y2009D02*
X2004Y2009D01*
X1477Y2008D02*
X1534Y2008D01*
X1949Y2008D02*
X2006Y2008D01*
X1475Y2007D02*
X1536Y2007D01*
X1947Y2007D02*
X2008Y2007D01*
X1473Y2006D02*
X1538Y2006D01*
X1945Y2006D02*
X2010Y2006D01*
X1471Y2005D02*
X1540Y2005D01*
X1943Y2005D02*
X2012Y2005D01*
X1469Y2004D02*
X1541Y2004D01*
X1942Y2004D02*
X2014Y2004D01*
X1468Y2003D02*
X1543Y2003D01*
X1940Y2003D02*
X2015Y2003D01*
X1466Y2002D02*
X1544Y2002D01*
X1939Y2002D02*
X2017Y2002D01*
X1465Y2001D02*
X1546Y2001D01*
X1937Y2001D02*
X2018Y2001D01*
X1464Y2000D02*
X1547Y2000D01*
X1936Y2000D02*
X2020Y2000D01*
X1462Y1999D02*
X1549Y1999D01*
X1935Y1999D02*
X2021Y1999D01*
X1461Y1998D02*
X1550Y1998D01*
X1933Y1998D02*
X2022Y1998D01*
X1460Y1997D02*
X1551Y1997D01*
X1932Y1997D02*
X2023Y1997D01*
X1459Y1996D02*
X1552Y1996D01*
X1931Y1996D02*
X2024Y1996D01*
X1458Y1995D02*
X1553Y1995D01*
X1930Y1995D02*
X2026Y1995D01*
X1456Y1994D02*
X1554Y1994D01*
X1929Y1994D02*
X2027Y1994D01*
X1456Y1993D02*
X1555Y1993D01*
X1928Y1993D02*
X2028Y1993D01*
X1455Y1992D02*
X1556Y1992D01*
X1927Y1992D02*
X2028Y1992D01*
X1454Y1991D02*
X1557Y1991D01*
X1926Y1991D02*
X2029Y1991D01*
X1453Y1990D02*
X1558Y1990D01*
X1925Y1990D02*
X2030Y1990D01*
X1452Y1989D02*
X1559Y1989D01*
X1924Y1989D02*
X2031Y1989D01*
X1451Y1988D02*
X1559Y1988D01*
X1924Y1988D02*
X2032Y1988D01*
X1450Y1987D02*
X1560Y1987D01*
X1923Y1987D02*
X2033Y1987D01*
X1450Y1986D02*
X1561Y1986D01*
X1922Y1986D02*
X2033Y1986D01*
X1449Y1985D02*
X1562Y1985D01*
X1921Y1985D02*
X2034Y1985D01*
X1448Y1984D02*
X1562Y1984D01*
X1921Y1984D02*
X2035Y1984D01*
X1448Y1983D02*
X1563Y1983D01*
X1920Y1983D02*
X2035Y1983D01*
X1447Y1982D02*
X1564Y1982D01*
X1919Y1982D02*
X2036Y1982D01*
X1446Y1981D02*
X1564Y1981D01*
X1919Y1981D02*
X2037Y1981D01*
X1446Y1980D02*
X1565Y1980D01*
X1918Y1980D02*
X2037Y1980D01*
X1445Y1979D02*
X1566Y1979D01*
X1918Y1979D02*
X2038Y1979D01*
X1445Y1978D02*
X1566Y1978D01*
X1917Y1978D02*
X2039Y1978D01*
X1444Y1977D02*
X1567Y1977D01*
X1916Y1977D02*
X2039Y1977D01*
X1444Y1976D02*
X1567Y1976D01*
X1916Y1976D02*
X2040Y1976D01*
X1443Y1975D02*
X1568Y1975D01*
X1915Y1975D02*
X2040Y1975D01*
X1443Y1974D02*
X1568Y1974D01*
X1915Y1974D02*
X2041Y1974D01*
X1442Y1973D02*
X1569Y1973D01*
X1914Y1973D02*
X2041Y1973D01*
X1442Y1972D02*
X1569Y1972D01*
X1914Y1972D02*
X2042Y1972D01*
X1441Y1971D02*
X1570Y1971D01*
X1914Y1971D02*
X2042Y1971D01*
X1441Y1970D02*
X1570Y1970D01*
X1913Y1970D02*
X2042Y1970D01*
X1440Y1969D02*
X1570Y1969D01*
X1913Y1969D02*
X2043Y1969D01*
X1440Y1968D02*
X1571Y1968D01*
X1912Y1968D02*
X2043Y1968D01*
X1440Y1967D02*
X1571Y1967D01*
X1912Y1967D02*
X2043Y1967D01*
X1439Y1966D02*
X1571Y1966D01*
X1912Y1966D02*
X2044Y1966D01*
X1439Y1965D02*
X1572Y1965D01*
X1911Y1965D02*
X2044Y1965D01*
X1439Y1964D02*
X1572Y1964D01*
X1911Y1964D02*
X2044Y1964D01*
X1439Y1963D02*
X1572Y1963D01*
X1911Y1963D02*
X2045Y1963D01*
X1438Y1962D02*
X1572Y1962D01*
X1911Y1962D02*
X2045Y1962D01*
X1438Y1961D02*
X1573Y1961D01*
X1910Y1961D02*
X2045Y1961D01*
X1438Y1960D02*
X1573Y1960D01*
X1910Y1960D02*
X2045Y1960D01*
X1438Y1959D02*
X1573Y1959D01*
X1910Y1959D02*
X2046Y1959D01*
X1437Y1958D02*
X1573Y1958D01*
X1910Y1958D02*
X2046Y1958D01*
X1437Y1957D02*
X1574Y1957D01*
X1910Y1957D02*
X2046Y1957D01*
X1437Y1956D02*
X1574Y1956D01*
X1909Y1956D02*
X2046Y1956D01*
X1437Y1955D02*
X1574Y1955D01*
X1909Y1955D02*
X2046Y1955D01*
X1437Y1954D02*
X1574Y1954D01*
X1909Y1954D02*
X2046Y1954D01*
X1437Y1953D02*
X1574Y1953D01*
X1909Y1953D02*
X2047Y1953D01*
X1436Y1952D02*
X1574Y1952D01*
X1909Y1952D02*
X2047Y1952D01*
X1436Y1951D02*
X1574Y1951D01*
X1909Y1951D02*
X2047Y1951D01*
X1436Y1950D02*
X1574Y1950D01*
X1909Y1950D02*
X2047Y1950D01*
X1436Y1949D02*
X1575Y1949D01*
X1909Y1949D02*
X2047Y1949D01*
X1436Y1948D02*
X1575Y1948D01*
X1908Y1948D02*
X2047Y1948D01*
X1436Y1947D02*
X1575Y1947D01*
X1908Y1947D02*
X2047Y1947D01*
X1436Y1946D02*
X1575Y1946D01*
X1908Y1946D02*
X2047Y1946D01*
X1436Y1945D02*
X1575Y1945D01*
X1908Y1945D02*
X2047Y1945D01*
X1436Y1944D02*
X1575Y1944D01*
X1908Y1944D02*
X2047Y1944D01*
X1436Y1943D02*
X1575Y1943D01*
X1908Y1943D02*
X2047Y1943D01*
X1436Y1942D02*
X1575Y1942D01*
X1908Y1942D02*
X2047Y1942D01*
X1436Y1941D02*
X1575Y1941D01*
X1908Y1941D02*
X2047Y1941D01*
X1436Y1940D02*
X1575Y1940D01*
X1909Y1940D02*
X2047Y1940D01*
X1436Y1939D02*
X1574Y1939D01*
X1909Y1939D02*
X2047Y1939D01*
X1436Y1938D02*
X1574Y1938D01*
X1909Y1938D02*
X2047Y1938D01*
X1436Y1937D02*
X1574Y1937D01*
X1909Y1937D02*
X2047Y1937D01*
X1437Y1936D02*
X1574Y1936D01*
X1909Y1936D02*
X2046Y1936D01*
X1437Y1935D02*
X1574Y1935D01*
X1909Y1935D02*
X2046Y1935D01*
X1437Y1934D02*
X1574Y1934D01*
X1909Y1934D02*
X2046Y1934D01*
X1437Y1933D02*
X1574Y1933D01*
X1733Y1933D02*
X1750Y1933D01*
X1909Y1933D02*
X2046Y1933D01*
X1437Y1932D02*
X1574Y1932D01*
X1727Y1932D02*
X1756Y1932D01*
X1910Y1932D02*
X2046Y1932D01*
X1437Y1931D02*
X1573Y1931D01*
X1723Y1931D02*
X1760Y1931D01*
X1910Y1931D02*
X2046Y1931D01*
X1438Y1930D02*
X1573Y1930D01*
X1720Y1930D02*
X1763Y1930D01*
X1910Y1930D02*
X2046Y1930D01*
X1438Y1929D02*
X1573Y1929D01*
X1717Y1929D02*
X1766Y1929D01*
X1910Y1929D02*
X2045Y1929D01*
X1438Y1928D02*
X1573Y1928D01*
X1714Y1928D02*
X1769Y1928D01*
X1910Y1928D02*
X2045Y1928D01*
X1438Y1927D02*
X1572Y1927D01*
X1712Y1927D02*
X1771Y1927D01*
X1911Y1927D02*
X2045Y1927D01*
X1439Y1926D02*
X1572Y1926D01*
X1710Y1926D02*
X1773Y1926D01*
X1911Y1926D02*
X2045Y1926D01*
X1439Y1925D02*
X1572Y1925D01*
X1708Y1925D02*
X1775Y1925D01*
X1911Y1925D02*
X2044Y1925D01*
X1439Y1924D02*
X1572Y1924D01*
X1707Y1924D02*
X1776Y1924D01*
X1911Y1924D02*
X2044Y1924D01*
X1439Y1923D02*
X1571Y1923D01*
X1705Y1923D02*
X1778Y1923D01*
X1912Y1923D02*
X2044Y1923D01*
X1440Y1922D02*
X1571Y1922D01*
X1703Y1922D02*
X1780Y1922D01*
X1912Y1922D02*
X2043Y1922D01*
X1440Y1921D02*
X1571Y1921D01*
X1702Y1921D02*
X1781Y1921D01*
X1912Y1921D02*
X2043Y1921D01*
X1440Y1920D02*
X1570Y1920D01*
X1701Y1920D02*
X1782Y1920D01*
X1913Y1920D02*
X2043Y1920D01*
X1441Y1919D02*
X1570Y1919D01*
X1699Y1919D02*
X1784Y1919D01*
X1913Y1919D02*
X2042Y1919D01*
X1441Y1918D02*
X1570Y1918D01*
X1698Y1918D02*
X1785Y1918D01*
X1914Y1918D02*
X2042Y1918D01*
X1442Y1917D02*
X1569Y1917D01*
X1697Y1917D02*
X1786Y1917D01*
X1914Y1917D02*
X2042Y1917D01*
X1442Y1916D02*
X1569Y1916D01*
X1696Y1916D02*
X1787Y1916D01*
X1914Y1916D02*
X2041Y1916D01*
X1443Y1915D02*
X1568Y1915D01*
X1694Y1915D02*
X1789Y1915D01*
X1915Y1915D02*
X2041Y1915D01*
X1443Y1914D02*
X1568Y1914D01*
X1693Y1914D02*
X1790Y1914D01*
X1915Y1914D02*
X2040Y1914D01*
X1444Y1913D02*
X1567Y1913D01*
X1692Y1913D02*
X1791Y1913D01*
X1916Y1913D02*
X2040Y1913D01*
X1444Y1912D02*
X1567Y1912D01*
X1691Y1912D02*
X1792Y1912D01*
X1916Y1912D02*
X2039Y1912D01*
X1445Y1911D02*
X1566Y1911D01*
X1691Y1911D02*
X1793Y1911D01*
X1917Y1911D02*
X2039Y1911D01*
X1445Y1910D02*
X1566Y1910D01*
X1690Y1910D02*
X1793Y1910D01*
X1918Y1910D02*
X2038Y1910D01*
X1446Y1909D02*
X1565Y1909D01*
X1689Y1909D02*
X1794Y1909D01*
X1918Y1909D02*
X2037Y1909D01*
X1446Y1908D02*
X1564Y1908D01*
X1688Y1908D02*
X1795Y1908D01*
X1919Y1908D02*
X2037Y1908D01*
X1447Y1907D02*
X1564Y1907D01*
X1687Y1907D02*
X1796Y1907D01*
X1919Y1907D02*
X2036Y1907D01*
X1448Y1906D02*
X1563Y1906D01*
X1686Y1906D02*
X1797Y1906D01*
X1920Y1906D02*
X2035Y1906D01*
X1448Y1905D02*
X1562Y1905D01*
X1686Y1905D02*
X1797Y1905D01*
X1921Y1905D02*
X2035Y1905D01*
X1449Y1904D02*
X1562Y1904D01*
X1685Y1904D02*
X1798Y1904D01*
X1921Y1904D02*
X2034Y1904D01*
X1450Y1903D02*
X1561Y1903D01*
X1684Y1903D02*
X1799Y1903D01*
X1922Y1903D02*
X2033Y1903D01*
X1451Y1902D02*
X1560Y1902D01*
X1684Y1902D02*
X1799Y1902D01*
X1923Y1902D02*
X2033Y1902D01*
X1451Y1901D02*
X1559Y1901D01*
X1683Y1901D02*
X1800Y1901D01*
X1924Y1901D02*
X2032Y1901D01*
X1452Y1900D02*
X1559Y1900D01*
X1682Y1900D02*
X1801Y1900D01*
X1924Y1900D02*
X2031Y1900D01*
X1453Y1899D02*
X1558Y1899D01*
X1682Y1899D02*
X1801Y1899D01*
X1925Y1899D02*
X2030Y1899D01*
X1454Y1898D02*
X1557Y1898D01*
X1681Y1898D02*
X1802Y1898D01*
X1926Y1898D02*
X2029Y1898D01*
X1455Y1897D02*
X1556Y1897D01*
X1681Y1897D02*
X1803Y1897D01*
X1927Y1897D02*
X2028Y1897D01*
X1456Y1896D02*
X1555Y1896D01*
X1680Y1896D02*
X1803Y1896D01*
X1928Y1896D02*
X2028Y1896D01*
X1457Y1895D02*
X1554Y1895D01*
X1680Y1895D02*
X1804Y1895D01*
X1929Y1895D02*
X2027Y1895D01*
X1458Y1894D02*
X1553Y1894D01*
X1679Y1894D02*
X1804Y1894D01*
X1930Y1894D02*
X2025Y1894D01*
X1459Y1893D02*
X1552Y1893D01*
X1679Y1893D02*
X1805Y1893D01*
X1931Y1893D02*
X2024Y1893D01*
X1460Y1892D02*
X1551Y1892D01*
X1678Y1892D02*
X1805Y1892D01*
X1932Y1892D02*
X2023Y1892D01*
X1461Y1891D02*
X1550Y1891D01*
X1678Y1891D02*
X1806Y1891D01*
X1933Y1891D02*
X2022Y1891D01*
X1462Y1890D02*
X1548Y1890D01*
X1677Y1890D02*
X1806Y1890D01*
X1935Y1890D02*
X2021Y1890D01*
X1464Y1889D02*
X1547Y1889D01*
X1677Y1889D02*
X1806Y1889D01*
X1936Y1889D02*
X2019Y1889D01*
X1465Y1888D02*
X1546Y1888D01*
X1677Y1888D02*
X1807Y1888D01*
X1937Y1888D02*
X2018Y1888D01*
X1466Y1887D02*
X1544Y1887D01*
X1676Y1887D02*
X1807Y1887D01*
X1939Y1887D02*
X2017Y1887D01*
X1468Y1886D02*
X1543Y1886D01*
X1676Y1886D02*
X1807Y1886D01*
X1940Y1886D02*
X2015Y1886D01*
X1469Y1885D02*
X1541Y1885D01*
X1675Y1885D02*
X1808Y1885D01*
X1942Y1885D02*
X2014Y1885D01*
X1471Y1884D02*
X1540Y1884D01*
X1675Y1884D02*
X1808Y1884D01*
X1943Y1884D02*
X2012Y1884D01*
X1473Y1883D02*
X1538Y1883D01*
X1675Y1883D02*
X1808Y1883D01*
X1945Y1883D02*
X2010Y1883D01*
X1475Y1882D02*
X1536Y1882D01*
X1675Y1882D02*
X1808Y1882D01*
X1947Y1882D02*
X2008Y1882D01*
X1477Y1881D02*
X1534Y1881D01*
X1674Y1881D02*
X1809Y1881D01*
X1949Y1881D02*
X2006Y1881D01*
X1479Y1880D02*
X1532Y1880D01*
X1674Y1880D02*
X1809Y1880D01*
X1951Y1880D02*
X2004Y1880D01*
X1482Y1879D02*
X1529Y1879D01*
X1674Y1879D02*
X1809Y1879D01*
X1954Y1879D02*
X2001Y1879D01*
X1485Y1878D02*
X1526Y1878D01*
X1674Y1878D02*
X1809Y1878D01*
X1957Y1878D02*
X1999Y1878D01*
X1488Y1877D02*
X1522Y1877D01*
X1673Y1877D02*
X1810Y1877D01*
X1961Y1877D02*
X1995Y1877D01*
X1493Y1876D02*
X1518Y1876D01*
X1673Y1876D02*
X1810Y1876D01*
X1965Y1876D02*
X1990Y1876D01*
X1499Y1875D02*
X1512Y1875D01*
X1673Y1875D02*
X1810Y1875D01*
X1972Y1875D02*
X1984Y1875D01*
X1673Y1874D02*
X1810Y1874D01*
X1673Y1873D02*
X1810Y1873D01*
X1673Y1872D02*
X1810Y1872D01*
X1673Y1871D02*
X1811Y1871D01*
X1672Y1870D02*
X1811Y1870D01*
X1672Y1869D02*
X1811Y1869D01*
X1672Y1868D02*
X1811Y1868D01*
X1672Y1867D02*
X1811Y1867D01*
X1672Y1866D02*
X1811Y1866D01*
X1672Y1865D02*
X1811Y1865D01*
X1672Y1864D02*
X1811Y1864D01*
X1672Y1863D02*
X1811Y1863D01*
X1672Y1862D02*
X1811Y1862D01*
X1672Y1861D02*
X1811Y1861D01*
X1672Y1860D02*
X1811Y1860D01*
X1672Y1859D02*
X1811Y1859D01*
X1672Y1858D02*
X1811Y1858D01*
X1673Y1857D02*
X1811Y1857D01*
X1673Y1856D02*
X1810Y1856D01*
X1673Y1855D02*
X1810Y1855D01*
X1673Y1854D02*
X1810Y1854D01*
X1673Y1853D02*
X1810Y1853D01*
X1673Y1852D02*
X1810Y1852D01*
X1673Y1851D02*
X1810Y1851D01*
X1674Y1850D02*
X1809Y1850D01*
X1674Y1849D02*
X1809Y1849D01*
X1674Y1848D02*
X1809Y1848D01*
X1674Y1847D02*
X1809Y1847D01*
X1675Y1846D02*
X1808Y1846D01*
X1675Y1845D02*
X1808Y1845D01*
X1675Y1844D02*
X1808Y1844D01*
X1675Y1843D02*
X1808Y1843D01*
X1676Y1842D02*
X1807Y1842D01*
X1676Y1841D02*
X1807Y1841D01*
X1676Y1840D02*
X1807Y1840D01*
X1677Y1839D02*
X1806Y1839D01*
X1677Y1838D02*
X1806Y1838D01*
X1677Y1837D02*
X1806Y1837D01*
X1678Y1836D02*
X1805Y1836D01*
X1678Y1835D02*
X1805Y1835D01*
X1679Y1834D02*
X1804Y1834D01*
X1679Y1833D02*
X1804Y1833D01*
X1680Y1832D02*
X1803Y1832D01*
X1680Y1831D02*
X1803Y1831D01*
X1681Y1830D02*
X1802Y1830D01*
X1682Y1829D02*
X1802Y1829D01*
X1682Y1828D02*
X1801Y1828D01*
X1683Y1827D02*
X1800Y1827D01*
X1683Y1826D02*
X1800Y1826D01*
X1684Y1825D02*
X1799Y1825D01*
X1685Y1824D02*
X1798Y1824D01*
X1685Y1823D02*
X1798Y1823D01*
X1686Y1822D02*
X1797Y1822D01*
X1687Y1821D02*
X1796Y1821D01*
X1688Y1820D02*
X1795Y1820D01*
X1688Y1819D02*
X1795Y1819D01*
X1689Y1818D02*
X1794Y1818D01*
X1690Y1817D02*
X1793Y1817D01*
X1691Y1816D02*
X1792Y1816D01*
X1692Y1815D02*
X1791Y1815D01*
X1693Y1814D02*
X1790Y1814D01*
X1694Y1813D02*
X1789Y1813D01*
X1695Y1812D02*
X1788Y1812D01*
X1696Y1811D02*
X1787Y1811D01*
X1698Y1810D02*
X1786Y1810D01*
X1699Y1809D02*
X1784Y1809D01*
X1700Y1808D02*
X1783Y1808D01*
X1702Y1807D02*
X1782Y1807D01*
X1703Y1806D02*
X1780Y1806D01*
X1705Y1805D02*
X1779Y1805D01*
X1706Y1804D02*
X1777Y1804D01*
X1708Y1803D02*
X1775Y1803D01*
X1710Y1802D02*
X1774Y1802D01*
X1712Y1801D02*
X1771Y1801D01*
X1714Y1800D02*
X1769Y1800D01*
X1716Y1799D02*
X1767Y1799D01*
X1719Y1798D02*
X1764Y1798D01*
X1722Y1797D02*
X1761Y1797D01*
X1726Y1796D02*
X1757Y1796D01*
X1731Y1795D02*
X1752Y1795D01*
X1741Y1794D02*
X1742Y1794D01*
D02*
G04 End of Mask0*
M02*