G04 MADE WITH FRITZING*
G04 WWW.FRITZING.ORG*
G04 DOUBLE SIDED*
G04 HOLES PLATED*
G04 CONTOUR ON CENTER OF CONTOUR VECTOR*
%ASAXBY*%
%FSLAX23Y23*%
%MOIN*%
%OFA0B0*%
%SFA1.0B1.0*%
%ADD10C,0.075000*%
%ADD11C,0.074000*%
%ADD12C,0.078000*%
%ADD13C,0.080000*%
%ADD14C,0.070925*%
%ADD15C,0.070866*%
%ADD16C,0.070000*%
%ADD17C,0.062992*%
%ADD18C,0.129921*%
%ADD19R,0.080000X0.080000*%
%ADD20R,0.075000X0.075000*%
%ADD21R,0.062992X0.062992*%
%ADD22R,0.001000X0.001000*%
%LNCOPPER0*%
G90*
G70*
G54D10*
X742Y2823D03*
X1242Y2823D03*
X742Y2323D03*
X1242Y2323D03*
X742Y2423D03*
X1242Y2423D03*
X742Y2523D03*
X1242Y2523D03*
X742Y2623D03*
X1242Y2623D03*
X742Y2723D03*
X1242Y2723D03*
G54D11*
X442Y2403D03*
X342Y2453D03*
X442Y2503D03*
X442Y2603D03*
X442Y2703D03*
X342Y2553D03*
X342Y2653D03*
X342Y2753D03*
G54D12*
X442Y2803D03*
X442Y2703D03*
G54D10*
X602Y1683D03*
X602Y1083D03*
X482Y1663D03*
X482Y1183D03*
X282Y1563D03*
X282Y1283D03*
X642Y3103D03*
X642Y2743D03*
X542Y2383D03*
X542Y1903D03*
X642Y2383D03*
X642Y1903D03*
X82Y2103D03*
X382Y2103D03*
X1022Y3083D03*
X1122Y3083D03*
X1222Y3083D03*
G54D13*
X1782Y3023D03*
X1582Y3023D03*
G54D10*
X1722Y623D03*
X1722Y403D03*
X1742Y2343D03*
X1742Y2063D03*
X882Y983D03*
X882Y763D03*
X1362Y2983D03*
X1362Y2783D03*
G54D12*
X202Y183D03*
X202Y283D03*
X202Y383D03*
X202Y483D03*
X202Y583D03*
X202Y683D03*
G54D14*
X1522Y623D03*
G54D15*
X1522Y816D03*
G54D16*
X1262Y723D03*
X1262Y623D03*
X1262Y923D03*
X1262Y823D03*
G54D10*
X2022Y2943D03*
X2122Y2943D03*
G54D17*
X1242Y183D03*
X1341Y183D03*
G54D10*
X1277Y363D03*
X1177Y363D03*
X1582Y403D03*
X1482Y403D03*
X1602Y1403D03*
X1602Y1103D03*
X1702Y1403D03*
X1702Y1103D03*
X1142Y2083D03*
X1142Y1683D03*
X722Y2923D03*
X1022Y2923D03*
X1782Y803D03*
X2082Y803D03*
X1782Y923D03*
X2082Y923D03*
G54D18*
X1742Y1863D03*
X1978Y1944D03*
X1978Y2422D03*
X1506Y1944D03*
X1506Y2422D03*
G54D13*
X2142Y1583D03*
X2142Y1383D03*
X2142Y1183D03*
G54D17*
X1582Y183D03*
X1484Y183D03*
G54D10*
X742Y1583D03*
X1042Y1583D03*
X742Y1483D03*
X1042Y1483D03*
X742Y1383D03*
X1042Y1383D03*
X742Y1283D03*
X1042Y1283D03*
X742Y1183D03*
X1042Y1183D03*
X742Y1083D03*
X1042Y1083D03*
X742Y983D03*
X1042Y983D03*
X742Y883D03*
X1042Y883D03*
X742Y783D03*
X1042Y783D03*
X742Y683D03*
X1042Y683D03*
X742Y583D03*
X1042Y583D03*
X742Y483D03*
X1042Y483D03*
X742Y383D03*
X1042Y383D03*
X742Y283D03*
X1042Y283D03*
G54D12*
X1482Y1263D03*
X1482Y1163D03*
X1482Y1523D03*
X1482Y1423D03*
X1262Y1563D03*
X1262Y1463D03*
X2162Y543D03*
X2062Y543D03*
G54D19*
X1782Y3023D03*
G54D20*
X2022Y2943D03*
G54D21*
X1242Y183D03*
G54D19*
X2142Y1583D03*
G54D21*
X1582Y183D03*
G54D20*
X742Y1583D03*
G54D22*
X305Y2790D02*
X378Y2790D01*
X305Y2789D02*
X378Y2789D01*
X305Y2788D02*
X378Y2788D01*
X305Y2787D02*
X378Y2787D01*
X305Y2786D02*
X378Y2786D01*
X305Y2785D02*
X378Y2785D01*
X305Y2784D02*
X378Y2784D01*
X305Y2783D02*
X378Y2783D01*
X305Y2782D02*
X378Y2782D01*
X305Y2781D02*
X378Y2781D01*
X305Y2780D02*
X378Y2780D01*
X305Y2779D02*
X378Y2779D01*
X305Y2778D02*
X378Y2778D01*
X305Y2777D02*
X378Y2777D01*
X305Y2776D02*
X378Y2776D01*
X305Y2775D02*
X378Y2775D01*
X305Y2774D02*
X378Y2774D01*
X305Y2773D02*
X338Y2773D01*
X345Y2773D02*
X378Y2773D01*
X305Y2772D02*
X334Y2772D01*
X349Y2772D02*
X378Y2772D01*
X305Y2771D02*
X332Y2771D01*
X351Y2771D02*
X378Y2771D01*
X305Y2770D02*
X330Y2770D01*
X353Y2770D02*
X378Y2770D01*
X305Y2769D02*
X329Y2769D01*
X354Y2769D02*
X378Y2769D01*
X305Y2768D02*
X328Y2768D01*
X356Y2768D02*
X378Y2768D01*
X305Y2767D02*
X327Y2767D01*
X357Y2767D02*
X378Y2767D01*
X305Y2766D02*
X326Y2766D01*
X357Y2766D02*
X378Y2766D01*
X305Y2765D02*
X325Y2765D01*
X358Y2765D02*
X378Y2765D01*
X305Y2764D02*
X325Y2764D01*
X359Y2764D02*
X378Y2764D01*
X305Y2763D02*
X324Y2763D01*
X359Y2763D02*
X378Y2763D01*
X305Y2762D02*
X323Y2762D01*
X360Y2762D02*
X378Y2762D01*
X305Y2761D02*
X323Y2761D01*
X360Y2761D02*
X378Y2761D01*
X305Y2760D02*
X323Y2760D01*
X361Y2760D02*
X378Y2760D01*
X305Y2759D02*
X322Y2759D01*
X361Y2759D02*
X378Y2759D01*
X305Y2758D02*
X322Y2758D01*
X361Y2758D02*
X378Y2758D01*
X305Y2757D02*
X322Y2757D01*
X362Y2757D02*
X378Y2757D01*
X305Y2756D02*
X322Y2756D01*
X362Y2756D02*
X378Y2756D01*
X305Y2755D02*
X322Y2755D01*
X362Y2755D02*
X378Y2755D01*
X305Y2754D02*
X322Y2754D01*
X362Y2754D02*
X378Y2754D01*
X305Y2753D02*
X322Y2753D01*
X362Y2753D02*
X378Y2753D01*
X305Y2752D02*
X322Y2752D01*
X362Y2752D02*
X378Y2752D01*
X305Y2751D02*
X322Y2751D01*
X362Y2751D02*
X378Y2751D01*
X305Y2750D02*
X322Y2750D01*
X361Y2750D02*
X378Y2750D01*
X305Y2749D02*
X322Y2749D01*
X361Y2749D02*
X378Y2749D01*
X305Y2748D02*
X322Y2748D01*
X361Y2748D02*
X378Y2748D01*
X305Y2747D02*
X323Y2747D01*
X361Y2747D02*
X378Y2747D01*
X305Y2746D02*
X323Y2746D01*
X360Y2746D02*
X378Y2746D01*
X305Y2745D02*
X324Y2745D01*
X360Y2745D02*
X378Y2745D01*
X305Y2744D02*
X324Y2744D01*
X359Y2744D02*
X378Y2744D01*
X305Y2743D02*
X325Y2743D01*
X359Y2743D02*
X378Y2743D01*
X305Y2742D02*
X325Y2742D01*
X358Y2742D02*
X378Y2742D01*
X305Y2741D02*
X326Y2741D01*
X357Y2741D02*
X378Y2741D01*
X305Y2740D02*
X327Y2740D01*
X356Y2740D02*
X378Y2740D01*
X305Y2739D02*
X328Y2739D01*
X355Y2739D02*
X378Y2739D01*
X305Y2738D02*
X329Y2738D01*
X354Y2738D02*
X378Y2738D01*
X305Y2737D02*
X331Y2737D01*
X353Y2737D02*
X378Y2737D01*
X305Y2736D02*
X333Y2736D01*
X351Y2736D02*
X378Y2736D01*
X305Y2735D02*
X335Y2735D01*
X348Y2735D02*
X378Y2735D01*
X305Y2734D02*
X341Y2734D01*
X343Y2734D02*
X378Y2734D01*
X305Y2733D02*
X378Y2733D01*
X305Y2732D02*
X378Y2732D01*
X305Y2731D02*
X378Y2731D01*
X305Y2730D02*
X378Y2730D01*
X305Y2729D02*
X378Y2729D01*
X305Y2728D02*
X378Y2728D01*
X305Y2727D02*
X378Y2727D01*
X305Y2726D02*
X378Y2726D01*
X305Y2725D02*
X378Y2725D01*
X305Y2724D02*
X378Y2724D01*
X305Y2723D02*
X378Y2723D01*
X305Y2722D02*
X378Y2722D01*
X305Y2721D02*
X378Y2721D01*
X305Y2720D02*
X378Y2720D01*
X305Y2719D02*
X378Y2719D01*
X305Y2718D02*
X378Y2718D01*
X305Y2717D02*
X378Y2717D01*
X1497Y2487D02*
X1513Y2487D01*
X1970Y2487D02*
X1986Y2487D01*
X1492Y2486D02*
X1519Y2486D01*
X1964Y2486D02*
X1991Y2486D01*
X1488Y2485D02*
X1523Y2485D01*
X1960Y2485D02*
X1995Y2485D01*
X1485Y2484D02*
X1526Y2484D01*
X1957Y2484D02*
X1999Y2484D01*
X1482Y2483D02*
X1529Y2483D01*
X1954Y2483D02*
X2001Y2483D01*
X1479Y2482D02*
X1531Y2482D01*
X1952Y2482D02*
X2004Y2482D01*
X1477Y2481D02*
X1533Y2481D01*
X1950Y2481D02*
X2006Y2481D01*
X1475Y2480D02*
X1535Y2480D01*
X1948Y2480D02*
X2008Y2480D01*
X1474Y2479D02*
X1537Y2479D01*
X1946Y2479D02*
X2009Y2479D01*
X1472Y2478D02*
X1539Y2478D01*
X1944Y2478D02*
X2011Y2478D01*
X1470Y2477D02*
X1540Y2477D01*
X1943Y2477D02*
X2013Y2477D01*
X1469Y2476D02*
X1542Y2476D01*
X1941Y2476D02*
X2014Y2476D01*
X1468Y2475D02*
X1543Y2475D01*
X1940Y2475D02*
X2016Y2475D01*
X1466Y2474D02*
X1545Y2474D01*
X1939Y2474D02*
X2017Y2474D01*
X1465Y2473D02*
X1546Y2473D01*
X1937Y2473D02*
X2018Y2473D01*
X1464Y2472D02*
X1547Y2472D01*
X1936Y2472D02*
X2019Y2472D01*
X1463Y2471D02*
X1548Y2471D01*
X1935Y2471D02*
X2021Y2471D01*
X1461Y2470D02*
X1549Y2470D01*
X1934Y2470D02*
X2022Y2470D01*
X1460Y2469D02*
X1550Y2469D01*
X1933Y2469D02*
X2023Y2469D01*
X1459Y2468D02*
X1551Y2468D01*
X1932Y2468D02*
X2024Y2468D01*
X1458Y2467D02*
X1552Y2467D01*
X1931Y2467D02*
X2025Y2467D01*
X1458Y2466D02*
X1553Y2466D01*
X1930Y2466D02*
X2026Y2466D01*
X1457Y2465D02*
X1554Y2465D01*
X1929Y2465D02*
X2026Y2465D01*
X1456Y2464D02*
X1555Y2464D01*
X1928Y2464D02*
X2027Y2464D01*
X1455Y2463D02*
X1556Y2463D01*
X1927Y2463D02*
X2028Y2463D01*
X1454Y2462D02*
X1556Y2462D01*
X1927Y2462D02*
X2029Y2462D01*
X1454Y2461D02*
X1557Y2461D01*
X1926Y2461D02*
X2030Y2461D01*
X1453Y2460D02*
X1558Y2460D01*
X1925Y2460D02*
X2030Y2460D01*
X1452Y2459D02*
X1559Y2459D01*
X1924Y2459D02*
X2031Y2459D01*
X1451Y2458D02*
X1559Y2458D01*
X1924Y2458D02*
X2032Y2458D01*
X1451Y2457D02*
X1560Y2457D01*
X1923Y2457D02*
X2032Y2457D01*
X1450Y2456D02*
X1560Y2456D01*
X1923Y2456D02*
X2033Y2456D01*
X1450Y2455D02*
X1561Y2455D01*
X1922Y2455D02*
X2033Y2455D01*
X1449Y2454D02*
X1562Y2454D01*
X1921Y2454D02*
X2034Y2454D01*
X1448Y2453D02*
X1562Y2453D01*
X1921Y2453D02*
X2035Y2453D01*
X1448Y2452D02*
X1563Y2452D01*
X1920Y2452D02*
X2035Y2452D01*
X1447Y2451D02*
X1563Y2451D01*
X1920Y2451D02*
X2036Y2451D01*
X1447Y2450D02*
X1564Y2450D01*
X1919Y2450D02*
X2036Y2450D01*
X1446Y2449D02*
X1564Y2449D01*
X1919Y2449D02*
X2037Y2449D01*
X1446Y2448D02*
X1500Y2448D01*
X1511Y2448D02*
X1565Y2448D01*
X1918Y2448D02*
X1973Y2448D01*
X1983Y2448D02*
X2037Y2448D01*
X1446Y2447D02*
X1497Y2447D01*
X1514Y2447D02*
X1565Y2447D01*
X1918Y2447D02*
X1969Y2447D01*
X1986Y2447D02*
X2037Y2447D01*
X1445Y2446D02*
X1494Y2446D01*
X1516Y2446D02*
X1565Y2446D01*
X1918Y2446D02*
X1967Y2446D01*
X1989Y2446D02*
X2038Y2446D01*
X1445Y2445D02*
X1492Y2445D01*
X1518Y2445D02*
X1566Y2445D01*
X1917Y2445D02*
X1965Y2445D01*
X1991Y2445D02*
X2038Y2445D01*
X1445Y2444D02*
X1490Y2444D01*
X1520Y2444D02*
X1566Y2444D01*
X1917Y2444D02*
X1963Y2444D01*
X1993Y2444D02*
X2039Y2444D01*
X1444Y2443D02*
X1489Y2443D01*
X1521Y2443D02*
X1567Y2443D01*
X1917Y2443D02*
X1962Y2443D01*
X1994Y2443D02*
X2039Y2443D01*
X1444Y2442D02*
X1488Y2442D01*
X1523Y2442D02*
X1567Y2442D01*
X1916Y2442D02*
X1960Y2442D01*
X1995Y2442D02*
X2039Y2442D01*
X1444Y2441D02*
X1487Y2441D01*
X1524Y2441D02*
X1567Y2441D01*
X1916Y2441D02*
X1959Y2441D01*
X1996Y2441D02*
X2039Y2441D01*
X1443Y2440D02*
X1486Y2440D01*
X1525Y2440D02*
X1567Y2440D01*
X1916Y2440D02*
X1958Y2440D01*
X1997Y2440D02*
X2040Y2440D01*
X1443Y2439D02*
X1485Y2439D01*
X1526Y2439D02*
X1568Y2439D01*
X1915Y2439D02*
X1958Y2439D01*
X1998Y2439D02*
X2040Y2439D01*
X1443Y2438D02*
X1484Y2438D01*
X1526Y2438D02*
X1568Y2438D01*
X1915Y2438D02*
X1957Y2438D01*
X1999Y2438D02*
X2040Y2438D01*
X1443Y2437D02*
X1484Y2437D01*
X1527Y2437D02*
X1568Y2437D01*
X1915Y2437D02*
X1956Y2437D01*
X2000Y2437D02*
X2040Y2437D01*
X1442Y2436D02*
X1483Y2436D01*
X1528Y2436D02*
X1568Y2436D01*
X1915Y2436D02*
X1955Y2436D01*
X2000Y2436D02*
X2041Y2436D01*
X1442Y2435D02*
X1482Y2435D01*
X1528Y2435D02*
X1569Y2435D01*
X1915Y2435D02*
X1955Y2435D01*
X2001Y2435D02*
X2041Y2435D01*
X1442Y2434D02*
X1482Y2434D01*
X1529Y2434D02*
X1569Y2434D01*
X1914Y2434D02*
X1954Y2434D01*
X2001Y2434D02*
X2041Y2434D01*
X1442Y2433D02*
X1481Y2433D01*
X1529Y2433D02*
X1569Y2433D01*
X1914Y2433D02*
X1954Y2433D01*
X2002Y2433D02*
X2041Y2433D01*
X1442Y2432D02*
X1481Y2432D01*
X1530Y2432D02*
X1569Y2432D01*
X1914Y2432D02*
X1953Y2432D01*
X2002Y2432D02*
X2041Y2432D01*
X1442Y2431D02*
X1481Y2431D01*
X1530Y2431D02*
X1569Y2431D01*
X1914Y2431D02*
X1953Y2431D01*
X2002Y2431D02*
X2042Y2431D01*
X1441Y2430D02*
X1480Y2430D01*
X1530Y2430D02*
X1569Y2430D01*
X1914Y2430D02*
X1953Y2430D01*
X2003Y2430D02*
X2042Y2430D01*
X1441Y2429D02*
X1480Y2429D01*
X1531Y2429D02*
X1569Y2429D01*
X1914Y2429D02*
X1952Y2429D01*
X2003Y2429D02*
X2042Y2429D01*
X1441Y2428D02*
X1480Y2428D01*
X1531Y2428D02*
X1570Y2428D01*
X1914Y2428D02*
X1952Y2428D01*
X2003Y2428D02*
X2042Y2428D01*
X1441Y2427D02*
X1480Y2427D01*
X1531Y2427D02*
X1570Y2427D01*
X1914Y2427D02*
X1952Y2427D01*
X2004Y2427D02*
X2042Y2427D01*
X1441Y2426D02*
X1479Y2426D01*
X1531Y2426D02*
X1570Y2426D01*
X1913Y2426D02*
X1952Y2426D01*
X2004Y2426D02*
X2042Y2426D01*
X1441Y2425D02*
X1479Y2425D01*
X1531Y2425D02*
X1570Y2425D01*
X1913Y2425D02*
X1952Y2425D01*
X2004Y2425D02*
X2042Y2425D01*
X1441Y2424D02*
X1479Y2424D01*
X1531Y2424D02*
X1570Y2424D01*
X1913Y2424D02*
X1952Y2424D01*
X2004Y2424D02*
X2042Y2424D01*
X1441Y2423D02*
X1479Y2423D01*
X1531Y2423D02*
X1570Y2423D01*
X1913Y2423D02*
X1952Y2423D01*
X2004Y2423D02*
X2042Y2423D01*
X1441Y2422D02*
X1479Y2422D01*
X1531Y2422D02*
X1570Y2422D01*
X1913Y2422D02*
X1952Y2422D01*
X2004Y2422D02*
X2042Y2422D01*
X1441Y2421D02*
X1479Y2421D01*
X1531Y2421D02*
X1570Y2421D01*
X1913Y2421D02*
X1952Y2421D01*
X2004Y2421D02*
X2042Y2421D01*
X1441Y2420D02*
X1479Y2420D01*
X1531Y2420D02*
X1570Y2420D01*
X1913Y2420D02*
X1952Y2420D01*
X2004Y2420D02*
X2042Y2420D01*
X1441Y2419D02*
X1479Y2419D01*
X1531Y2419D02*
X1570Y2419D01*
X1913Y2419D02*
X1952Y2419D01*
X2004Y2419D02*
X2042Y2419D01*
X1441Y2418D02*
X1480Y2418D01*
X1531Y2418D02*
X1570Y2418D01*
X1914Y2418D02*
X1952Y2418D01*
X2003Y2418D02*
X2042Y2418D01*
X1441Y2417D02*
X1480Y2417D01*
X1531Y2417D02*
X1569Y2417D01*
X1914Y2417D02*
X1952Y2417D01*
X2003Y2417D02*
X2042Y2417D01*
X1441Y2416D02*
X1480Y2416D01*
X1531Y2416D02*
X1569Y2416D01*
X1914Y2416D02*
X1952Y2416D01*
X2003Y2416D02*
X2042Y2416D01*
X1441Y2415D02*
X1480Y2415D01*
X1530Y2415D02*
X1569Y2415D01*
X1914Y2415D02*
X1953Y2415D01*
X2003Y2415D02*
X2042Y2415D01*
X1442Y2414D02*
X1481Y2414D01*
X1530Y2414D02*
X1569Y2414D01*
X1914Y2414D02*
X1953Y2414D01*
X2002Y2414D02*
X2041Y2414D01*
X1442Y2413D02*
X1481Y2413D01*
X1530Y2413D02*
X1569Y2413D01*
X1914Y2413D02*
X1954Y2413D01*
X2002Y2413D02*
X2041Y2413D01*
X1442Y2412D02*
X1482Y2412D01*
X1529Y2412D02*
X1569Y2412D01*
X1914Y2412D02*
X1954Y2412D01*
X2001Y2412D02*
X2041Y2412D01*
X1442Y2411D02*
X1482Y2411D01*
X1529Y2411D02*
X1569Y2411D01*
X1914Y2411D02*
X1955Y2411D01*
X2001Y2411D02*
X2041Y2411D01*
X1442Y2410D02*
X1483Y2410D01*
X1528Y2410D02*
X1568Y2410D01*
X1915Y2410D02*
X1955Y2410D01*
X2000Y2410D02*
X2041Y2410D01*
X1443Y2409D02*
X1483Y2409D01*
X1527Y2409D02*
X1568Y2409D01*
X1915Y2409D02*
X1956Y2409D01*
X2000Y2409D02*
X2041Y2409D01*
X1443Y2408D02*
X1484Y2408D01*
X1527Y2408D02*
X1568Y2408D01*
X1915Y2408D02*
X1956Y2408D01*
X1999Y2408D02*
X2040Y2408D01*
X1443Y2407D02*
X1485Y2407D01*
X1526Y2407D02*
X1568Y2407D01*
X1915Y2407D02*
X1957Y2407D01*
X1998Y2407D02*
X2040Y2407D01*
X1443Y2406D02*
X1486Y2406D01*
X1525Y2406D02*
X1567Y2406D01*
X1916Y2406D02*
X1958Y2406D01*
X1997Y2406D02*
X2040Y2406D01*
X1444Y2405D02*
X1486Y2405D01*
X1524Y2405D02*
X1567Y2405D01*
X1916Y2405D02*
X1959Y2405D01*
X1997Y2405D02*
X2040Y2405D01*
X1444Y2404D02*
X1488Y2404D01*
X1523Y2404D02*
X1567Y2404D01*
X1916Y2404D02*
X1960Y2404D01*
X1996Y2404D02*
X2039Y2404D01*
X1444Y2403D02*
X1489Y2403D01*
X1522Y2403D02*
X1567Y2403D01*
X1916Y2403D02*
X1961Y2403D01*
X1994Y2403D02*
X2039Y2403D01*
X1444Y2402D02*
X1490Y2402D01*
X1521Y2402D02*
X1566Y2402D01*
X1917Y2402D02*
X1962Y2402D01*
X1993Y2402D02*
X2039Y2402D01*
X1445Y2401D02*
X1491Y2401D01*
X1519Y2401D02*
X1566Y2401D01*
X1917Y2401D02*
X1964Y2401D01*
X1992Y2401D02*
X2038Y2401D01*
X1445Y2400D02*
X1493Y2400D01*
X1517Y2400D02*
X1566Y2400D01*
X1917Y2400D02*
X1966Y2400D01*
X1990Y2400D02*
X2038Y2400D01*
X1445Y2399D02*
X1495Y2399D01*
X1515Y2399D02*
X1565Y2399D01*
X1918Y2399D02*
X1968Y2399D01*
X1988Y2399D02*
X2038Y2399D01*
X1446Y2398D02*
X1498Y2398D01*
X1513Y2398D02*
X1565Y2398D01*
X1918Y2398D02*
X1971Y2398D01*
X1985Y2398D02*
X2037Y2398D01*
X1446Y2397D02*
X1564Y2397D01*
X1919Y2397D02*
X2037Y2397D01*
X1447Y2396D02*
X1564Y2396D01*
X1919Y2396D02*
X2036Y2396D01*
X1447Y2395D02*
X1563Y2395D01*
X1920Y2395D02*
X2036Y2395D01*
X1448Y2394D02*
X1563Y2394D01*
X1920Y2394D02*
X2035Y2394D01*
X1448Y2393D02*
X1563Y2393D01*
X1921Y2393D02*
X2035Y2393D01*
X1449Y2392D02*
X1562Y2392D01*
X1921Y2392D02*
X2034Y2392D01*
X1449Y2391D02*
X1561Y2391D01*
X1922Y2391D02*
X2034Y2391D01*
X1450Y2390D02*
X1561Y2390D01*
X1922Y2390D02*
X2033Y2390D01*
X1451Y2389D02*
X1560Y2389D01*
X1923Y2389D02*
X2033Y2389D01*
X1451Y2388D02*
X1560Y2388D01*
X1924Y2388D02*
X2032Y2388D01*
X1452Y2387D02*
X1559Y2387D01*
X1924Y2387D02*
X2031Y2387D01*
X1452Y2386D02*
X1558Y2386D01*
X1925Y2386D02*
X2031Y2386D01*
X1453Y2385D02*
X1558Y2385D01*
X1926Y2385D02*
X2030Y2385D01*
X1454Y2384D02*
X1557Y2384D01*
X1926Y2384D02*
X2029Y2384D01*
X1455Y2383D02*
X1556Y2383D01*
X1927Y2383D02*
X2028Y2383D01*
X1455Y2382D02*
X1555Y2382D01*
X1928Y2382D02*
X2028Y2382D01*
X1456Y2381D02*
X1555Y2381D01*
X1929Y2381D02*
X2027Y2381D01*
X1457Y2380D02*
X1554Y2380D01*
X1929Y2380D02*
X2026Y2380D01*
X1458Y2379D02*
X1553Y2379D01*
X1930Y2379D02*
X2025Y2379D01*
X1459Y2378D02*
X1552Y2378D01*
X1931Y2378D02*
X2024Y2378D01*
X1460Y2377D02*
X1551Y2377D01*
X1932Y2377D02*
X2023Y2377D01*
X1461Y2376D02*
X1550Y2376D01*
X1933Y2376D02*
X2022Y2376D01*
X1462Y2375D02*
X1549Y2375D01*
X1934Y2375D02*
X2021Y2375D01*
X1463Y2374D02*
X1548Y2374D01*
X1935Y2374D02*
X2020Y2374D01*
X1464Y2373D02*
X1546Y2373D01*
X1937Y2373D02*
X2019Y2373D01*
X1466Y2372D02*
X1545Y2372D01*
X1938Y2372D02*
X2018Y2372D01*
X1467Y2371D02*
X1544Y2371D01*
X1939Y2371D02*
X2016Y2371D01*
X1468Y2370D02*
X1542Y2370D01*
X1941Y2370D02*
X2015Y2370D01*
X1470Y2369D02*
X1541Y2369D01*
X1942Y2369D02*
X2013Y2369D01*
X1471Y2368D02*
X1540Y2368D01*
X1944Y2368D02*
X2012Y2368D01*
X1473Y2367D02*
X1538Y2367D01*
X1945Y2367D02*
X2010Y2367D01*
X1474Y2366D02*
X1536Y2366D01*
X1947Y2366D02*
X2009Y2366D01*
X1476Y2365D02*
X1534Y2365D01*
X1949Y2365D02*
X2007Y2365D01*
X1478Y2364D02*
X1532Y2364D01*
X1951Y2364D02*
X2005Y2364D01*
X1480Y2363D02*
X1530Y2363D01*
X1953Y2363D02*
X2003Y2363D01*
X1483Y2362D02*
X1528Y2362D01*
X1956Y2362D02*
X2000Y2362D01*
X1486Y2361D02*
X1525Y2361D01*
X1958Y2361D02*
X1997Y2361D01*
X1490Y2360D02*
X1521Y2360D01*
X1962Y2360D02*
X1993Y2360D01*
X1494Y2359D02*
X1516Y2359D01*
X1967Y2359D02*
X1989Y2359D01*
X1503Y2358D02*
X1508Y2358D01*
X1975Y2358D02*
X1980Y2358D01*
X1499Y2009D02*
X1512Y2009D01*
X1971Y2009D02*
X1984Y2009D01*
X1493Y2008D02*
X1518Y2008D01*
X1965Y2008D02*
X1990Y2008D01*
X1489Y2007D02*
X1522Y2007D01*
X1961Y2007D02*
X1994Y2007D01*
X1485Y2006D02*
X1526Y2006D01*
X1958Y2006D02*
X1998Y2006D01*
X1482Y2005D02*
X1528Y2005D01*
X1955Y2005D02*
X2001Y2005D01*
X1480Y2004D02*
X1531Y2004D01*
X1952Y2004D02*
X2003Y2004D01*
X1478Y2003D02*
X1533Y2003D01*
X1950Y2003D02*
X2005Y2003D01*
X1476Y2002D02*
X1535Y2002D01*
X1948Y2002D02*
X2007Y2002D01*
X1474Y2001D02*
X1537Y2001D01*
X1946Y2001D02*
X2009Y2001D01*
X1472Y2000D02*
X1538Y2000D01*
X1945Y2000D02*
X2011Y2000D01*
X1471Y1999D02*
X1540Y1999D01*
X1943Y1999D02*
X2012Y1999D01*
X1469Y1998D02*
X1542Y1998D01*
X1942Y1998D02*
X2014Y1998D01*
X1468Y1997D02*
X1543Y1997D01*
X1940Y1997D02*
X2015Y1997D01*
X1466Y1996D02*
X1544Y1996D01*
X1939Y1996D02*
X2017Y1996D01*
X1465Y1995D02*
X1546Y1995D01*
X1937Y1995D02*
X2018Y1995D01*
X1464Y1994D02*
X1547Y1994D01*
X1936Y1994D02*
X2019Y1994D01*
X1463Y1993D02*
X1548Y1993D01*
X1935Y1993D02*
X2020Y1993D01*
X1462Y1992D02*
X1549Y1992D01*
X1934Y1992D02*
X2021Y1992D01*
X1461Y1991D02*
X1550Y1991D01*
X1933Y1991D02*
X2023Y1991D01*
X1460Y1990D02*
X1551Y1990D01*
X1932Y1990D02*
X2024Y1990D01*
X1459Y1989D02*
X1552Y1989D01*
X1931Y1989D02*
X2024Y1989D01*
X1458Y1988D02*
X1553Y1988D01*
X1930Y1988D02*
X2025Y1988D01*
X1457Y1987D02*
X1554Y1987D01*
X1929Y1987D02*
X2026Y1987D01*
X1456Y1986D02*
X1555Y1986D01*
X1928Y1986D02*
X2027Y1986D01*
X1455Y1985D02*
X1556Y1985D01*
X1928Y1985D02*
X2028Y1985D01*
X1454Y1984D02*
X1556Y1984D01*
X1927Y1984D02*
X2029Y1984D01*
X1454Y1983D02*
X1557Y1983D01*
X1926Y1983D02*
X2029Y1983D01*
X1453Y1982D02*
X1558Y1982D01*
X1925Y1982D02*
X2030Y1982D01*
X1452Y1981D02*
X1558Y1981D01*
X1925Y1981D02*
X2031Y1981D01*
X1452Y1980D02*
X1559Y1980D01*
X1924Y1980D02*
X2031Y1980D01*
X1451Y1979D02*
X1560Y1979D01*
X1923Y1979D02*
X2032Y1979D01*
X1450Y1978D02*
X1560Y1978D01*
X1923Y1978D02*
X2033Y1978D01*
X1450Y1977D02*
X1561Y1977D01*
X1922Y1977D02*
X2033Y1977D01*
X1449Y1976D02*
X1562Y1976D01*
X1922Y1976D02*
X2034Y1976D01*
X1449Y1975D02*
X1562Y1975D01*
X1921Y1975D02*
X2035Y1975D01*
X1448Y1974D02*
X1563Y1974D01*
X1920Y1974D02*
X2035Y1974D01*
X1448Y1973D02*
X1563Y1973D01*
X1920Y1973D02*
X2035Y1973D01*
X1447Y1972D02*
X1564Y1972D01*
X1919Y1972D02*
X2036Y1972D01*
X1447Y1971D02*
X1564Y1971D01*
X1919Y1971D02*
X2036Y1971D01*
X1446Y1970D02*
X1502Y1970D01*
X1509Y1970D02*
X1565Y1970D01*
X1918Y1970D02*
X1974Y1970D01*
X1981Y1970D02*
X2037Y1970D01*
X1446Y1969D02*
X1497Y1969D01*
X1514Y1969D02*
X1565Y1969D01*
X1918Y1969D02*
X1970Y1969D01*
X1986Y1969D02*
X2037Y1969D01*
X1445Y1968D02*
X1495Y1968D01*
X1516Y1968D02*
X1565Y1968D01*
X1918Y1968D02*
X1967Y1968D01*
X1988Y1968D02*
X2038Y1968D01*
X1445Y1967D02*
X1493Y1967D01*
X1518Y1967D02*
X1566Y1967D01*
X1917Y1967D02*
X1965Y1967D01*
X1990Y1967D02*
X2038Y1967D01*
X1445Y1966D02*
X1491Y1966D01*
X1520Y1966D02*
X1566Y1966D01*
X1917Y1966D02*
X1963Y1966D01*
X1992Y1966D02*
X2038Y1966D01*
X1444Y1965D02*
X1490Y1965D01*
X1521Y1965D02*
X1566Y1965D01*
X1917Y1965D02*
X1962Y1965D01*
X1994Y1965D02*
X2039Y1965D01*
X1444Y1964D02*
X1488Y1964D01*
X1522Y1964D02*
X1567Y1964D01*
X1916Y1964D02*
X1961Y1964D01*
X1995Y1964D02*
X2039Y1964D01*
X1444Y1963D02*
X1487Y1963D01*
X1524Y1963D02*
X1567Y1963D01*
X1916Y1963D02*
X1960Y1963D01*
X1996Y1963D02*
X2039Y1963D01*
X1443Y1962D02*
X1486Y1962D01*
X1524Y1962D02*
X1567Y1962D01*
X1916Y1962D02*
X1959Y1962D01*
X1997Y1962D02*
X2040Y1962D01*
X1443Y1961D02*
X1485Y1961D01*
X1525Y1961D02*
X1568Y1961D01*
X1916Y1961D02*
X1958Y1961D01*
X1998Y1961D02*
X2040Y1961D01*
X1443Y1960D02*
X1485Y1960D01*
X1526Y1960D02*
X1568Y1960D01*
X1915Y1960D02*
X1957Y1960D01*
X1999Y1960D02*
X2040Y1960D01*
X1443Y1959D02*
X1484Y1959D01*
X1527Y1959D02*
X1568Y1959D01*
X1915Y1959D02*
X1956Y1959D01*
X1999Y1959D02*
X2040Y1959D01*
X1442Y1958D02*
X1483Y1958D01*
X1528Y1958D02*
X1568Y1958D01*
X1915Y1958D02*
X1955Y1958D01*
X2000Y1958D02*
X2041Y1958D01*
X1442Y1957D02*
X1483Y1957D01*
X1528Y1957D02*
X1568Y1957D01*
X1915Y1957D02*
X1955Y1957D01*
X2001Y1957D02*
X2041Y1957D01*
X1442Y1956D02*
X1482Y1956D01*
X1529Y1956D02*
X1569Y1956D01*
X1914Y1956D02*
X1954Y1956D01*
X2001Y1956D02*
X2041Y1956D01*
X1442Y1955D02*
X1482Y1955D01*
X1529Y1955D02*
X1569Y1955D01*
X1914Y1955D02*
X1954Y1955D01*
X2002Y1955D02*
X2041Y1955D01*
X1442Y1954D02*
X1481Y1954D01*
X1530Y1954D02*
X1569Y1954D01*
X1914Y1954D02*
X1953Y1954D01*
X2002Y1954D02*
X2041Y1954D01*
X1442Y1953D02*
X1481Y1953D01*
X1530Y1953D02*
X1569Y1953D01*
X1914Y1953D02*
X1953Y1953D01*
X2002Y1953D02*
X2041Y1953D01*
X1441Y1952D02*
X1480Y1952D01*
X1530Y1952D02*
X1569Y1952D01*
X1914Y1952D02*
X1953Y1952D01*
X2003Y1952D02*
X2042Y1952D01*
X1441Y1951D02*
X1480Y1951D01*
X1531Y1951D02*
X1569Y1951D01*
X1914Y1951D02*
X1952Y1951D01*
X2003Y1951D02*
X2042Y1951D01*
X1441Y1950D02*
X1480Y1950D01*
X1531Y1950D02*
X1569Y1950D01*
X1914Y1950D02*
X1952Y1950D01*
X2003Y1950D02*
X2042Y1950D01*
X1441Y1949D02*
X1480Y1949D01*
X1531Y1949D02*
X1570Y1949D01*
X1914Y1949D02*
X1952Y1949D01*
X2003Y1949D02*
X2042Y1949D01*
X1441Y1948D02*
X1479Y1948D01*
X1531Y1948D02*
X1570Y1948D01*
X1913Y1948D02*
X1952Y1948D01*
X2004Y1948D02*
X2042Y1948D01*
X1441Y1947D02*
X1479Y1947D01*
X1531Y1947D02*
X1570Y1947D01*
X1913Y1947D02*
X1952Y1947D01*
X2004Y1947D02*
X2042Y1947D01*
X1441Y1946D02*
X1479Y1946D01*
X1531Y1946D02*
X1570Y1946D01*
X1913Y1946D02*
X1952Y1946D01*
X2004Y1946D02*
X2042Y1946D01*
X1441Y1945D02*
X1479Y1945D01*
X1531Y1945D02*
X1570Y1945D01*
X1913Y1945D02*
X1952Y1945D01*
X2004Y1945D02*
X2042Y1945D01*
X1441Y1944D02*
X1479Y1944D01*
X1531Y1944D02*
X1570Y1944D01*
X1913Y1944D02*
X1952Y1944D01*
X2004Y1944D02*
X2042Y1944D01*
X1441Y1943D02*
X1479Y1943D01*
X1531Y1943D02*
X1570Y1943D01*
X1913Y1943D02*
X1952Y1943D01*
X2004Y1943D02*
X2042Y1943D01*
X1441Y1942D02*
X1479Y1942D01*
X1531Y1942D02*
X1570Y1942D01*
X1913Y1942D02*
X1952Y1942D01*
X2004Y1942D02*
X2042Y1942D01*
X1441Y1941D02*
X1479Y1941D01*
X1531Y1941D02*
X1570Y1941D01*
X1913Y1941D02*
X1952Y1941D01*
X2004Y1941D02*
X2042Y1941D01*
X1441Y1940D02*
X1480Y1940D01*
X1531Y1940D02*
X1570Y1940D01*
X1914Y1940D02*
X1952Y1940D01*
X2003Y1940D02*
X2042Y1940D01*
X1441Y1939D02*
X1480Y1939D01*
X1531Y1939D02*
X1569Y1939D01*
X1914Y1939D02*
X1952Y1939D01*
X2003Y1939D02*
X2042Y1939D01*
X1441Y1938D02*
X1480Y1938D01*
X1531Y1938D02*
X1569Y1938D01*
X1914Y1938D02*
X1952Y1938D01*
X2003Y1938D02*
X2042Y1938D01*
X1441Y1937D02*
X1480Y1937D01*
X1530Y1937D02*
X1569Y1937D01*
X1914Y1937D02*
X1953Y1937D01*
X2003Y1937D02*
X2042Y1937D01*
X1442Y1936D02*
X1481Y1936D01*
X1530Y1936D02*
X1569Y1936D01*
X1914Y1936D02*
X1953Y1936D01*
X2002Y1936D02*
X2041Y1936D01*
X1442Y1935D02*
X1481Y1935D01*
X1530Y1935D02*
X1569Y1935D01*
X1914Y1935D02*
X1953Y1935D01*
X2002Y1935D02*
X2041Y1935D01*
X1442Y1934D02*
X1482Y1934D01*
X1529Y1934D02*
X1569Y1934D01*
X1914Y1934D02*
X1954Y1934D01*
X2002Y1934D02*
X2041Y1934D01*
X1442Y1933D02*
X1482Y1933D01*
X1529Y1933D02*
X1569Y1933D01*
X1914Y1933D02*
X1954Y1933D01*
X2001Y1933D02*
X2041Y1933D01*
X1442Y1932D02*
X1483Y1932D01*
X1528Y1932D02*
X1568Y1932D01*
X1915Y1932D02*
X1955Y1932D01*
X2000Y1932D02*
X2041Y1932D01*
X1442Y1931D02*
X1483Y1931D01*
X1528Y1931D02*
X1568Y1931D01*
X1915Y1931D02*
X1955Y1931D01*
X2000Y1931D02*
X2041Y1931D01*
X1443Y1930D02*
X1484Y1930D01*
X1527Y1930D02*
X1568Y1930D01*
X1915Y1930D02*
X1956Y1930D01*
X1999Y1930D02*
X2040Y1930D01*
X1443Y1929D02*
X1485Y1929D01*
X1526Y1929D02*
X1568Y1929D01*
X1915Y1929D02*
X1957Y1929D01*
X1999Y1929D02*
X2040Y1929D01*
X1443Y1928D02*
X1485Y1928D01*
X1525Y1928D02*
X1568Y1928D01*
X1733Y1928D02*
X1750Y1928D01*
X1916Y1928D02*
X1958Y1928D01*
X1998Y1928D02*
X2040Y1928D01*
X1443Y1927D02*
X1486Y1927D01*
X1524Y1927D02*
X1567Y1927D01*
X1728Y1927D02*
X1756Y1927D01*
X1916Y1927D02*
X1959Y1927D01*
X1997Y1927D02*
X2040Y1927D01*
X1444Y1926D02*
X1487Y1926D01*
X1523Y1926D02*
X1567Y1926D01*
X1724Y1926D02*
X1760Y1926D01*
X1916Y1926D02*
X1960Y1926D01*
X1996Y1926D02*
X2039Y1926D01*
X1444Y1925D02*
X1488Y1925D01*
X1522Y1925D02*
X1567Y1925D01*
X1720Y1925D02*
X1763Y1925D01*
X1916Y1925D02*
X1961Y1925D01*
X1995Y1925D02*
X2039Y1925D01*
X1444Y1924D02*
X1490Y1924D01*
X1521Y1924D02*
X1566Y1924D01*
X1718Y1924D02*
X1765Y1924D01*
X1917Y1924D02*
X1962Y1924D01*
X1993Y1924D02*
X2039Y1924D01*
X1445Y1923D02*
X1491Y1923D01*
X1520Y1923D02*
X1566Y1923D01*
X1715Y1923D02*
X1768Y1923D01*
X1917Y1923D02*
X1963Y1923D01*
X1992Y1923D02*
X2038Y1923D01*
X1445Y1922D02*
X1493Y1922D01*
X1518Y1922D02*
X1566Y1922D01*
X1713Y1922D02*
X1770Y1922D01*
X1917Y1922D02*
X1965Y1922D01*
X1990Y1922D02*
X2038Y1922D01*
X1445Y1921D02*
X1495Y1921D01*
X1516Y1921D02*
X1565Y1921D01*
X1711Y1921D02*
X1772Y1921D01*
X1918Y1921D02*
X1967Y1921D01*
X1988Y1921D02*
X2038Y1921D01*
X1446Y1920D02*
X1497Y1920D01*
X1513Y1920D02*
X1565Y1920D01*
X1710Y1920D02*
X1773Y1920D01*
X1918Y1920D02*
X1970Y1920D01*
X1986Y1920D02*
X2037Y1920D01*
X1446Y1919D02*
X1503Y1919D01*
X1508Y1919D02*
X1565Y1919D01*
X1708Y1919D02*
X1775Y1919D01*
X1919Y1919D02*
X1976Y1919D01*
X1980Y1919D02*
X2037Y1919D01*
X1447Y1918D02*
X1564Y1918D01*
X1706Y1918D02*
X1777Y1918D01*
X1919Y1918D02*
X2036Y1918D01*
X1447Y1917D02*
X1564Y1917D01*
X1705Y1917D02*
X1778Y1917D01*
X1919Y1917D02*
X2036Y1917D01*
X1448Y1916D02*
X1563Y1916D01*
X1704Y1916D02*
X1779Y1916D01*
X1920Y1916D02*
X2035Y1916D01*
X1448Y1915D02*
X1563Y1915D01*
X1702Y1915D02*
X1781Y1915D01*
X1920Y1915D02*
X2035Y1915D01*
X1449Y1914D02*
X1562Y1914D01*
X1701Y1914D02*
X1782Y1914D01*
X1921Y1914D02*
X2034Y1914D01*
X1449Y1913D02*
X1562Y1913D01*
X1700Y1913D02*
X1783Y1913D01*
X1922Y1913D02*
X2034Y1913D01*
X1450Y1912D02*
X1561Y1912D01*
X1699Y1912D02*
X1784Y1912D01*
X1922Y1912D02*
X2033Y1912D01*
X1450Y1911D02*
X1560Y1911D01*
X1698Y1911D02*
X1786Y1911D01*
X1923Y1911D02*
X2033Y1911D01*
X1451Y1910D02*
X1560Y1910D01*
X1696Y1910D02*
X1787Y1910D01*
X1923Y1910D02*
X2032Y1910D01*
X1452Y1909D02*
X1559Y1909D01*
X1695Y1909D02*
X1788Y1909D01*
X1924Y1909D02*
X2031Y1909D01*
X1452Y1908D02*
X1558Y1908D01*
X1695Y1908D02*
X1789Y1908D01*
X1925Y1908D02*
X2031Y1908D01*
X1453Y1907D02*
X1558Y1907D01*
X1694Y1907D02*
X1789Y1907D01*
X1925Y1907D02*
X2030Y1907D01*
X1454Y1906D02*
X1557Y1906D01*
X1693Y1906D02*
X1790Y1906D01*
X1926Y1906D02*
X2029Y1906D01*
X1455Y1905D02*
X1556Y1905D01*
X1692Y1905D02*
X1791Y1905D01*
X1927Y1905D02*
X2029Y1905D01*
X1455Y1904D02*
X1555Y1904D01*
X1691Y1904D02*
X1792Y1904D01*
X1928Y1904D02*
X2028Y1904D01*
X1456Y1903D02*
X1555Y1903D01*
X1690Y1903D02*
X1793Y1903D01*
X1928Y1903D02*
X2027Y1903D01*
X1457Y1902D02*
X1554Y1902D01*
X1690Y1902D02*
X1793Y1902D01*
X1929Y1902D02*
X2026Y1902D01*
X1458Y1901D02*
X1553Y1901D01*
X1689Y1901D02*
X1794Y1901D01*
X1930Y1901D02*
X2025Y1901D01*
X1459Y1900D02*
X1552Y1900D01*
X1688Y1900D02*
X1795Y1900D01*
X1931Y1900D02*
X2024Y1900D01*
X1460Y1899D02*
X1551Y1899D01*
X1688Y1899D02*
X1795Y1899D01*
X1932Y1899D02*
X2023Y1899D01*
X1461Y1898D02*
X1550Y1898D01*
X1687Y1898D02*
X1796Y1898D01*
X1933Y1898D02*
X2022Y1898D01*
X1462Y1897D02*
X1549Y1897D01*
X1686Y1897D02*
X1797Y1897D01*
X1934Y1897D02*
X2021Y1897D01*
X1463Y1896D02*
X1548Y1896D01*
X1686Y1896D02*
X1797Y1896D01*
X1935Y1896D02*
X2020Y1896D01*
X1464Y1895D02*
X1547Y1895D01*
X1685Y1895D02*
X1798Y1895D01*
X1936Y1895D02*
X2019Y1895D01*
X1465Y1894D02*
X1545Y1894D01*
X1685Y1894D02*
X1798Y1894D01*
X1938Y1894D02*
X2018Y1894D01*
X1467Y1893D02*
X1544Y1893D01*
X1684Y1893D02*
X1799Y1893D01*
X1939Y1893D02*
X2017Y1893D01*
X1468Y1892D02*
X1543Y1892D01*
X1684Y1892D02*
X1799Y1892D01*
X1940Y1892D02*
X2015Y1892D01*
X1469Y1891D02*
X1541Y1891D01*
X1683Y1891D02*
X1800Y1891D01*
X1942Y1891D02*
X2014Y1891D01*
X1471Y1890D02*
X1540Y1890D01*
X1683Y1890D02*
X1800Y1890D01*
X1943Y1890D02*
X2012Y1890D01*
X1472Y1889D02*
X1538Y1889D01*
X1682Y1889D02*
X1736Y1889D01*
X1747Y1889D02*
X1801Y1889D01*
X1945Y1889D02*
X2011Y1889D01*
X1474Y1888D02*
X1537Y1888D01*
X1682Y1888D02*
X1733Y1888D01*
X1751Y1888D02*
X1801Y1888D01*
X1946Y1888D02*
X2009Y1888D01*
X1476Y1887D02*
X1535Y1887D01*
X1681Y1887D02*
X1730Y1887D01*
X1753Y1887D02*
X1802Y1887D01*
X1948Y1887D02*
X2007Y1887D01*
X1478Y1886D02*
X1533Y1886D01*
X1681Y1886D02*
X1728Y1886D01*
X1755Y1886D02*
X1802Y1886D01*
X1950Y1886D02*
X2005Y1886D01*
X1480Y1885D02*
X1531Y1885D01*
X1681Y1885D02*
X1727Y1885D01*
X1757Y1885D02*
X1802Y1885D01*
X1952Y1885D02*
X2003Y1885D01*
X1483Y1884D02*
X1528Y1884D01*
X1680Y1884D02*
X1725Y1884D01*
X1758Y1884D02*
X1803Y1884D01*
X1955Y1884D02*
X2001Y1884D01*
X1485Y1883D02*
X1525Y1883D01*
X1680Y1883D02*
X1724Y1883D01*
X1759Y1883D02*
X1803Y1883D01*
X1958Y1883D02*
X1998Y1883D01*
X1489Y1882D02*
X1522Y1882D01*
X1680Y1882D02*
X1723Y1882D01*
X1760Y1882D02*
X1803Y1882D01*
X1961Y1882D02*
X1994Y1882D01*
X1493Y1881D02*
X1518Y1881D01*
X1680Y1881D02*
X1722Y1881D01*
X1761Y1881D02*
X1804Y1881D01*
X1965Y1881D02*
X1990Y1881D01*
X1499Y1880D02*
X1512Y1880D01*
X1679Y1880D02*
X1721Y1880D01*
X1762Y1880D02*
X1804Y1880D01*
X1972Y1880D02*
X1984Y1880D01*
X1679Y1879D02*
X1720Y1879D01*
X1763Y1879D02*
X1804Y1879D01*
X1679Y1878D02*
X1720Y1878D01*
X1763Y1878D02*
X1804Y1878D01*
X1679Y1877D02*
X1719Y1877D01*
X1764Y1877D02*
X1805Y1877D01*
X1678Y1876D02*
X1719Y1876D01*
X1764Y1876D02*
X1805Y1876D01*
X1678Y1875D02*
X1718Y1875D01*
X1765Y1875D02*
X1805Y1875D01*
X1678Y1874D02*
X1718Y1874D01*
X1766Y1874D02*
X1805Y1874D01*
X1678Y1873D02*
X1717Y1873D01*
X1766Y1873D02*
X1805Y1873D01*
X1678Y1872D02*
X1717Y1872D01*
X1766Y1872D02*
X1805Y1872D01*
X1678Y1871D02*
X1716Y1871D01*
X1767Y1871D02*
X1806Y1871D01*
X1677Y1870D02*
X1716Y1870D01*
X1767Y1870D02*
X1806Y1870D01*
X1677Y1869D02*
X1716Y1869D01*
X1767Y1869D02*
X1806Y1869D01*
X1677Y1868D02*
X1716Y1868D01*
X1767Y1868D02*
X1806Y1868D01*
X1677Y1867D02*
X1716Y1867D01*
X1768Y1867D02*
X1806Y1867D01*
X1677Y1866D02*
X1716Y1866D01*
X1768Y1866D02*
X1806Y1866D01*
X1677Y1865D02*
X1715Y1865D01*
X1768Y1865D02*
X1806Y1865D01*
X1677Y1864D02*
X1715Y1864D01*
X1768Y1864D02*
X1806Y1864D01*
X1677Y1863D02*
X1715Y1863D01*
X1768Y1863D02*
X1806Y1863D01*
X1677Y1862D02*
X1716Y1862D01*
X1768Y1862D02*
X1806Y1862D01*
X1677Y1861D02*
X1716Y1861D01*
X1768Y1861D02*
X1806Y1861D01*
X1677Y1860D02*
X1716Y1860D01*
X1767Y1860D02*
X1806Y1860D01*
X1677Y1859D02*
X1716Y1859D01*
X1767Y1859D02*
X1806Y1859D01*
X1677Y1858D02*
X1716Y1858D01*
X1767Y1858D02*
X1806Y1858D01*
X1678Y1857D02*
X1716Y1857D01*
X1767Y1857D02*
X1806Y1857D01*
X1678Y1856D02*
X1717Y1856D01*
X1766Y1856D02*
X1805Y1856D01*
X1678Y1855D02*
X1717Y1855D01*
X1766Y1855D02*
X1805Y1855D01*
X1678Y1854D02*
X1717Y1854D01*
X1766Y1854D02*
X1805Y1854D01*
X1678Y1853D02*
X1718Y1853D01*
X1765Y1853D02*
X1805Y1853D01*
X1678Y1852D02*
X1718Y1852D01*
X1765Y1852D02*
X1805Y1852D01*
X1678Y1851D02*
X1719Y1851D01*
X1764Y1851D02*
X1805Y1851D01*
X1679Y1850D02*
X1719Y1850D01*
X1764Y1850D02*
X1804Y1850D01*
X1679Y1849D02*
X1720Y1849D01*
X1763Y1849D02*
X1804Y1849D01*
X1679Y1848D02*
X1721Y1848D01*
X1762Y1848D02*
X1804Y1848D01*
X1679Y1847D02*
X1722Y1847D01*
X1761Y1847D02*
X1804Y1847D01*
X1680Y1846D02*
X1723Y1846D01*
X1760Y1846D02*
X1803Y1846D01*
X1680Y1845D02*
X1724Y1845D01*
X1759Y1845D02*
X1803Y1845D01*
X1680Y1844D02*
X1725Y1844D01*
X1758Y1844D02*
X1803Y1844D01*
X1681Y1843D02*
X1726Y1843D01*
X1757Y1843D02*
X1802Y1843D01*
X1681Y1842D02*
X1728Y1842D01*
X1755Y1842D02*
X1802Y1842D01*
X1681Y1841D02*
X1730Y1841D01*
X1753Y1841D02*
X1802Y1841D01*
X1682Y1840D02*
X1732Y1840D01*
X1751Y1840D02*
X1801Y1840D01*
X1682Y1839D02*
X1735Y1839D01*
X1748Y1839D02*
X1801Y1839D01*
X1682Y1838D02*
X1801Y1838D01*
X1683Y1837D02*
X1800Y1837D01*
X1683Y1836D02*
X1800Y1836D01*
X1684Y1835D02*
X1799Y1835D01*
X1684Y1834D02*
X1799Y1834D01*
X1685Y1833D02*
X1798Y1833D01*
X1686Y1832D02*
X1798Y1832D01*
X1686Y1831D02*
X1797Y1831D01*
X1687Y1830D02*
X1796Y1830D01*
X1687Y1829D02*
X1796Y1829D01*
X1688Y1828D02*
X1795Y1828D01*
X1689Y1827D02*
X1794Y1827D01*
X1689Y1826D02*
X1794Y1826D01*
X1690Y1825D02*
X1793Y1825D01*
X1691Y1824D02*
X1792Y1824D01*
X1692Y1823D02*
X1791Y1823D01*
X1692Y1822D02*
X1791Y1822D01*
X1693Y1821D02*
X1790Y1821D01*
X1694Y1820D02*
X1789Y1820D01*
X1695Y1819D02*
X1788Y1819D01*
X1696Y1818D02*
X1787Y1818D01*
X1697Y1817D02*
X1786Y1817D01*
X1698Y1816D02*
X1785Y1816D01*
X1699Y1815D02*
X1784Y1815D01*
X1701Y1814D02*
X1783Y1814D01*
X1702Y1813D02*
X1781Y1813D01*
X1703Y1812D02*
X1780Y1812D01*
X1705Y1811D02*
X1779Y1811D01*
X1706Y1810D02*
X1777Y1810D01*
X1708Y1809D02*
X1776Y1809D01*
X1709Y1808D02*
X1774Y1808D01*
X1711Y1807D02*
X1772Y1807D01*
X1713Y1806D02*
X1770Y1806D01*
X1715Y1805D02*
X1768Y1805D01*
X1717Y1804D02*
X1766Y1804D01*
X1720Y1803D02*
X1763Y1803D01*
X1722Y1802D02*
X1761Y1802D01*
X1726Y1801D02*
X1757Y1801D01*
X1731Y1800D02*
X1752Y1800D01*
X1740Y1799D02*
X1743Y1799D01*
D02*
G04 End of Copper0*
M02*